<svg width="459" height="230" viewBox="0 0 459 230" fill="none" xmlns="http://www.w3.org/2000/svg">
<g id="graphics">
<g id="Group">
<path id="Vector" d="M36.35 89.35C37.5 83.52 40.18 79.86 40.35 79.63C41.43 78.21 43.5 77.87 45 78.89C46.49 79.91 46.78 81.84 45.77 83.31C44.11 85.72 41.93 92.25 42.95 97.99C43.96 103.73 45.68 108.37 55.08 110.08C61.04 111.17 61.63 115.81 62.06 119.21C62.54 122.94 63.12 127.58 68.81 132.66C71.05 134.66 73.91 136.16 76.95 137.74C78.46 138.53 80.03 139.35 81.58 140.28C83.92 135.24 85.85 126.6 85.69 121.45C85.49 115.06 83.31 108.97 79.4 103.84L78.55 102.73L78.82 101.38C79.3 98.99 79.5 96.56 79.45 94.16C78.27 94.55 76.74 94.82 75.23 94.8C68.84 94.74 63.93 92.24 60.61 88.21C54.87 81.26 56.19 73.53 56.46 69.48C56.73 65.43 56.98 62.21 57.46 57.64C58.21 50.56 59.13 41.74 58.43 38.61C56.27 28.97 51.38 29.13 49.53 29.19C47.69 29.25 46.15 27.88 46.1 26.13C46.05 24.38 47.49 22.91 49.33 22.85C53.92 22.7 62.06 24.38 64.94 37.27C65.86 41.37 64.96 49.96 64.08 58.26C63.6 62.82 63.2 66.12 63.11 69.8C63.02 73.48 62.44 80.25 65.86 84.31C68.01 86.86 71.18 88.24 75.63 88.47C77.24 88.57 80.78 86.96 82.67 83.68C83.79 81.14 84.34 78.38 84.26 75.59C84.13 71.48 82.65 67.58 80 64.32L78.37 62.32L80.06 60.36C83.19 56.72 84.84 52.16 84.69 47.5C84.57 43.59 83.22 39.86 80.81 36.71L79.31 34.76L80.89 32.86C83.88 29.26 85.45 24.77 85.3 20.2C84.95 8.95 77.3 1.33 66.69 1.67C59.37 1.91 53.88 4.99 50.82 12.17C43.41 10.18 34.74 16.71 32.8 23.21C30.8 29.94 32.02 38 40.41 48.19C41.65 49.7 42.98 51.06 44.36 52.22C45.73 53.38 45.86 55.39 44.63 56.7C43.99 57.38 43.13 57.74 42.24 57.77C41.42 57.8 40.59 57.53 39.92 56.97C38.25 55.56 36.65 53.92 35.16 52.12C29.16 44.83 27.02 36.62 26.26 31.07C13.59 39.86 11.96 56.04 17.73 64.94C10.33 76.25 21.84 90.08 36.37 89.39L36.35 89.35Z" fill="#04B3FF" stroke="black" stroke-width="3" stroke-miterlimit="10"/>
<path id="Vector_2" d="M73.72 143.31C70.34 141.87 67.08 139.85 64.23 137.3C56.79 130.65 55.98 124.24 55.44 120C55 116.54 54.86 116.52 53.79 116.32C48.38 115.33 44.65 113.56 42.06 111.3C38.84 112.73 35.69 113.37 32.77 113.47C24.19 113.75 17.61 109.65 17.24 109.41C15.71 108.44 15.31 106.47 16.33 105.01C17.36 103.55 19.43 103.16 20.94 104.12C21.3 104.35 29.33 109.25 38.14 106.03C37.28 104.18 35.6 100.31 35.71 95.77C21.72 96.16 8.76999 87.77 8.20999 73.71C-9.88001 100.68 11.67 125.95 36.25 133.1C42.86 135.02 47.63 141.75 47.7 148.76C47.7 149.98 47.55 151.82 46.81 153.88C49.42 154.38 52.5 155.28 55.56 156.72C54.81 151.91 55.4 147.89 55.44 147.62C55.71 145.89 57.42 144.69 59.22 144.93C61.04 145.18 62.29 146.79 62.03 148.52C62.02 148.6 60.51 158.7 64.9 163.43C67.23 165.94 69.56 170.1 70.23 174.72C70.48 176.45 69.21 178.06 67.39 178.31C67.27 178.32 67.15 178.34 67.03 178.34C65.35 178.39 63.87 177.24 63.64 175.61C61.67 162.07 47.98 160.19 43.14 159.7C40.95 161.96 37.75 164.11 33.03 165.71C32.7 165.83 32.36 165.88 32.02 165.89C30.61 165.94 29.27 165.12 28.78 163.78C28.17 162.13 29.08 160.31 30.82 159.72C37.45 157.47 41.07 153.6 41.03 148.83C40.99 144.59 37.97 140.33 34.14 139.13C20.45 134.83 10.4 127.8 4.17999 118.23C-3.86001 139.55 13.56 148.6 24.7 147.27C26.5 147.08 28.19 148.29 28.41 150.03C28.63 151.77 27.33 153.36 25.5 153.57C24.59 153.68 23.71 153.74 22.85 153.77C19.01 153.89 15.61 153.27 12.68 152.28C10.06 164.06 21.93 183.7 43.62 175.62C46.34 191.06 68.77 198.2 81.7 183.53C94.42 169.1 85.59 148.39 73.72 143.32V143.31Z" fill="#ABFCFF" stroke="black" stroke-width="3" stroke-miterlimit="10"/>
<path id="Vector_3" d="M163.13 89.58C165.33 76.05 162.97 62.79 150.16 59.91C152.65 48.78 146.25 38.41 140.29 34.86C137.85 42.62 133.92 46.87 129.71 50.24C131.24 52.53 134.9 58.64 134.98 65.18C135 67.03 133.58 68.56 131.8 68.62C131.78 68.62 131.76 68.62 131.74 68.62C129.93 68.65 128.44 67.16 128.42 65.29C128.37 60.69 125.52 55.94 124.37 54.2C119.06 58.05 114.14 62.19 111.01 72.64C110.58 74.06 109.34 74.98 107.98 75.03C107.63 75.04 107.27 75 106.91 74.88C105.18 74.34 104.21 72.44 104.75 70.66C108.81 57.13 115.79 52.13 121.95 47.71C127.18 43.96 131.72 40.68 134.23 32.22L134.74 29.4C135.05 27.71 135.18 26.01 135.13 24.35C134.76 11.33 124.18 1.08 111.57 1.52C98.96 1.96 89 12.92 89.37 25.94C89.47 29.24 90.22 32.43 91.61 35.42L92.38 37.08L91.44 38.66C89.37 42.14 88.34 46.12 88.46 50.18C88.49 51.05 88.57 51.92 88.71 52.77C91.34 48.93 94.26 45.72 96.18 44.01C96.95 43.33 97.7 42.68 98.42 42.05C105.56 35.83 109.14 32.71 108.52 22.25C108.41 20.39 109.78 18.77 111.59 18.65C113.44 18.52 114.95 19.94 115.06 21.81C115.89 35.67 110.33 40.52 102.64 47.22C101.93 47.84 101.2 48.48 100.44 49.14C97.56 51.69 93.91 56.3 91.57 60.73L91.61 60.81L90.93 62.34C89.61 65.3 88.99 68.43 89.08 71.64C89.17 74.67 89.89 77.6 91.24 80.35L91.9 81.7L91.36 83.11C89.94 86.82 89.28 90.73 89.39 94.72C89.48 97.92 90.14 101.06 91.21 104.04C91.21 104.04 123.18 57.82 163.13 89.57V89.58Z" fill="#D9E021" stroke="black" stroke-width="3" stroke-miterlimit="10"/>
</g>
<g id="Group_2">
<g id="Group_3">
<g id="Group_4">
<path id="Vector_4" d="M428.48 163.08C428.4 167.71 427.72 172.45 425.43 176.48C423.14 180.5 419.01 183.7 414.39 183.89C418.96 184.32 423.32 186.7 426.14 190.33C428.96 193.96 430.2 198.77 429.49 203.31C430.4 198.99 431.7 194.67 434.22 191.04C436.74 187.42 440.64 184.56 445.04 184.16C440.19 183.53 435.63 180.86 432.7 176.95C429.77 173.03 428.5 167.91 429.26 163.08" fill="#FCEE21"/>
<path id="Vector_5" d="M427.48 163.08C427.38 167.69 426.74 172.46 424.28 176.46C422.14 179.93 418.54 182.65 414.39 182.89C413.09 182.97 413.12 184.76 414.39 184.89C423.3 185.83 429.81 194.16 428.52 203.04C428.34 204.28 430.17 204.86 430.45 203.57C432.1 195.83 435.92 186.13 445.03 185.16C446.04 185.05 446.51 183.37 445.3 183.2C435.73 181.85 428.81 173.01 430.22 163.34C430.4 162.08 428.48 161.54 428.29 162.81C427.52 168.09 428.79 173.51 432.07 177.76C435.15 181.76 439.79 184.42 444.77 185.13L445.04 183.17C434.93 184.25 430.4 194.27 428.53 203.05L430.46 203.58C431.19 198.56 429.92 193.46 426.74 189.48C423.56 185.5 419.19 183.4 414.4 182.9V184.9C419.04 184.63 423.03 181.89 425.61 178.11C428.59 173.74 429.39 168.27 429.5 163.09C429.53 161.8 427.53 161.8 427.5 163.09L427.48 163.08Z" fill="black"/>
</g>
<g id="Group_5">
<path id="Vector_6" d="M413.75 199.94C414.4 206.71 409.91 213.64 403.46 215.81C406.36 214.81 409.47 217.05 410.94 219.74C412.41 222.43 412.84 225.57 414.11 228.36C413.17 223.29 416.19 217.76 420.97 215.81C418.01 215.7 415.48 213.36 414.34 210.63C413.2 207.89 413.22 204.82 413.47 201.87" fill="#FCEE21"/>
<path id="Vector_7" d="M412.75 199.94C413.28 206.34 409.3 212.7 403.19 214.85C401.99 215.27 402.47 217.15 403.72 216.78C406.47 215.95 408.97 218.15 410.18 220.45C411.58 223.1 412.05 226.14 413.25 228.88C413.74 229.99 415.25 229.14 415.08 228.11C414.29 223.35 417.1 218.57 421.48 216.69C422.47 216.26 421.85 214.89 420.98 214.83C414.7 214.4 414.1 206.62 414.49 201.89C414.6 200.61 412.59 200.61 412.49 201.89C412.2 205.38 412.23 209.15 414.05 212.27C415.53 214.81 418.01 216.63 420.98 216.83L420.48 214.97C415.23 217.22 412.23 223.07 413.16 228.65L414.99 227.88C413.55 224.6 413.18 220.8 410.92 217.91C409.1 215.59 406.19 213.97 403.21 214.87L403.74 216.8C410.64 214.38 415.37 207.29 414.76 199.96C414.65 198.69 412.65 198.68 412.76 199.96L412.75 199.94Z" fill="black"/>
</g>
</g>
<path id="Vector_8" d="M451.09 196.9C452.38 196.9 452.38 194.9 451.09 194.9C449.8 194.9 449.8 196.9 451.09 196.9Z" fill="black"/>
<g id="Group_6">
<path id="Vector_9" d="M451.01 197.07C450.94 199.01 449.82 200.79 448.37 202.08C446.92 203.37 445.15 204.24 443.41 205.09C445.45 204.83 447.5 205.87 448.86 207.41C450.22 208.95 450.99 210.92 451.53 212.91C451.78 211.14 452.32 209.38 453.42 207.97C454.52 206.57 456.24 205.58 458.02 205.67C454.35 204.48 451.57 200.93 451.28 197.08" fill="#FCEE21"/>
<path id="Vector_10" d="M450.01 197.07C449.79 200.85 445.87 202.77 442.91 204.22C442.05 204.64 442.43 206.18 443.41 206.08C447.54 205.66 449.64 209.8 450.57 213.16C450.81 214.04 452.35 214.18 452.5 213.16C452.94 210.21 454.5 206.58 458.03 206.65C459.2 206.68 459.33 205.04 458.3 204.69C455.05 203.59 452.6 200.5 452.3 197.07C452.19 195.8 450.19 195.79 450.3 197.07C450.68 201.43 453.62 205.21 457.77 206.62L458.04 204.66C453.62 204.56 451.16 208.76 450.58 212.63H452.51C451.89 210.38 450.99 208.12 449.33 206.42C447.8 204.86 445.63 203.85 443.42 204.08L443.92 205.94C447.64 204.12 451.75 201.67 452.01 197.06C452.08 195.77 450.08 195.78 450.01 197.06V197.07Z" fill="black"/>
</g>
<g id="Group_7">
<path id="Vector_11" d="M451.07 196.08C451.14 195.99 451 195.84 450.9 195.91Z" fill="#FCEE21"/>
<path id="Vector_12" d="M451.93 196.58C451.93 196.58 451.93 196.58 451.93 196.57C451.97 196.49 452.01 196.4 452.04 196.32C452.05 196.28 452.06 196.18 452.06 196.17C452.06 196.17 452.08 196.07 452.08 196.02C452.08 195.93 452.06 195.83 452.04 195.74C452.04 195.74 452.04 195.73 452.04 195.72C452.01 195.63 451.97 195.55 451.93 195.47C451.93 195.47 451.93 195.46 451.93 195.45C451.88 195.37 451.82 195.29 451.75 195.22C451.75 195.22 451.75 195.22 451.74 195.21C451.71 195.18 451.66 195.15 451.64 195.13C451.61 195.11 451.57 195.08 451.54 195.05C451.54 195.05 451.54 195.05 451.53 195.05C451.49 195.03 451.42 195 451.4 194.99C451.38 194.99 451.31 194.95 451.27 194.93C451.19 194.91 450.92 194.88 450.99 194.89C450.99 194.89 450.98 194.89 450.97 194.89C450.92 194.89 450.85 194.91 450.83 194.91C450.82 194.91 450.73 194.91 450.69 194.93C450.61 194.96 450.52 195 450.44 195.03C450.44 195.03 450.43 195.03 450.42 195.04C450.3 195.1 450.21 195.19 450.14 195.3C450.05 195.4 449.99 195.51 449.96 195.64C449.92 195.77 449.91 195.91 449.94 196.04C449.94 196.17 449.99 196.3 450.06 196.41L450.22 196.61C450.34 196.73 450.49 196.82 450.66 196.87L450.93 196.91C451.11 196.91 451.28 196.86 451.43 196.77C451.43 196.77 451.44 196.77 451.45 196.76L451.21 196.86H451.23L450.96 196.9C450.96 196.9 450.98 196.9 450.99 196.9L450.72 196.86C450.72 196.86 450.74 196.86 450.75 196.86L450.51 196.76C450.51 196.76 450.53 196.77 450.54 196.78L450.34 196.62C450.34 196.62 450.36 196.64 450.37 196.65L450.21 196.45C450.21 196.45 450.22 196.47 450.23 196.48L450.13 196.24C450.13 196.24 450.13 196.26 450.13 196.27L450.09 196C450.09 196 450.09 196.02 450.09 196.03L450.13 195.76V195.78L450.23 195.54C450.23 195.54 450.23 195.55 450.22 195.56C450.15 195.67 450.11 195.8 450.1 195.93C450.07 196.06 450.08 196.2 450.12 196.33C450.15 196.46 450.21 196.57 450.3 196.67C450.37 196.78 450.46 196.86 450.58 196.93L450.82 197.03C451 197.08 451.17 197.08 451.35 197.03L451.59 196.93C451.74 196.84 451.86 196.72 451.95 196.57L451.93 196.58Z" fill="black"/>
</g>
</g>
</g>
</svg>
