<svg width="318" height="195" viewBox="0 0 318 195" fill="none" xmlns="http://www.w3.org/2000/svg">
<g id="logo_black 1" clip-path="url(#clip0_1_2)">
<g id="Group">
<g id="Group_2">
<path id="Vector" d="M89.5 115.96C89.5 109.47 91.45 104.19 95.35 100.14C99.25 96.09 104.37 94.07 110.71 94.07C114.81 94.07 118.13 94.8 120.68 96.27C123.23 97.73 124.5 99.64 124.5 101.98C124.5 103.48 124.02 104.73 123.05 105.72C122.08 106.71 120.86 107.21 119.38 107.21C118.74 107.21 117.46 106.9 115.52 106.27C113.58 105.65 111.98 105.33 110.71 105.33C108.16 105.33 106.11 106.28 104.54 108.19C102.97 110.1 102.19 112.61 102.19 115.72C102.19 118.83 102.99 121.5 104.6 123.34C106.2 125.19 108.39 126.11 111.17 126.11C112.52 126.11 114.13 125.8 116 125.17C117.87 124.55 119.09 124.23 119.65 124.23C121 124.23 122.13 124.75 123.05 125.78C123.97 126.81 124.42 128.08 124.42 129.58C124.42 131.85 123.03 133.78 120.26 135.39C117.48 136.99 114.05 137.8 109.95 137.8C103.89 137.8 98.97 135.78 95.18 131.75C91.4 127.71 89.51 122.45 89.51 115.95L89.5 115.96Z" fill="black" stroke="black" stroke-width="2" stroke-miterlimit="10"/>
<path id="Vector_2" d="M126.01 123.58C126.01 119.51 127.26 116.16 129.75 113.54C132.25 110.92 135.41 109.6 139.26 109.6C143.11 109.6 146.29 110.91 148.76 113.52C151.23 116.14 152.47 119.49 152.47 123.57C152.47 127.65 151.23 131.01 148.76 133.64C146.29 136.26 143.12 137.58 139.26 137.58C135.4 137.58 132.25 136.26 129.75 133.63C127.25 131 126.01 127.65 126.01 123.58ZM134.1 123.48C134.1 125.48 134.58 127.09 135.53 128.31C136.48 129.53 137.73 130.14 139.26 130.14C140.79 130.14 142.04 129.53 142.99 128.3C143.94 127.07 144.42 125.47 144.42 123.48C144.42 121.49 143.93 119.99 142.95 118.77C141.97 117.55 140.74 116.94 139.26 116.94C137.78 116.94 136.5 117.55 135.54 118.76C134.58 119.97 134.1 121.55 134.1 123.48Z" fill="black" stroke="black" stroke-width="2" stroke-miterlimit="10"/>
<path id="Vector_3" d="M173.21 133.51C172.35 134.74 171.34 135.65 170.16 136.26C168.98 136.87 167.63 137.17 166.11 137.17C162.94 137.17 160.27 135.87 158.08 133.27C155.89 130.67 154.8 127.44 154.8 123.58C154.8 119.72 155.98 116.41 158.34 113.74C160.7 111.07 163.57 109.74 166.96 109.74C168.28 109.74 169.46 109.97 170.49 110.42C171.52 110.87 172.42 111.57 173.22 112.53C173.64 111.75 174.16 111.15 174.78 110.7C175.4 110.25 176.04 110.03 176.68 110.03C178.02 110.03 179.01 110.49 179.65 111.42C180.29 112.35 180.61 113.77 180.61 115.7V131.42C180.61 134.31 180.47 136.57 180.19 138.19C179.91 139.81 179.43 141.16 178.77 142.22C177.62 144.14 176.04 145.6 174.03 146.59C172.02 147.58 169.63 148.08 166.87 148.08C163.49 148.08 160.74 147.54 158.61 146.46C156.48 145.38 155.41 144.01 155.41 142.37C155.41 141.38 155.73 140.57 156.37 139.92C157.01 139.27 157.81 138.95 158.78 138.95C159.25 138.95 160.37 139.3 162.16 139.99C163.94 140.68 165.61 141.03 167.16 141.03C169.1 141.03 170.6 140.46 171.67 139.31C172.74 138.16 173.27 136.54 173.27 134.44C173.27 134.34 173.27 134.19 173.25 133.98C173.23 133.77 173.23 133.61 173.23 133.5L173.21 133.51ZM162.89 123.58C162.89 125.53 163.37 127.12 164.32 128.33C165.27 129.54 166.5 130.15 168 130.15C169.5 130.15 170.74 129.54 171.71 128.32C172.68 127.1 173.16 125.52 173.16 123.58C173.16 121.64 172.68 120.15 171.71 118.96C170.74 117.77 169.51 117.18 168 117.18C166.49 117.18 165.27 117.77 164.32 118.96C163.37 120.15 162.89 121.69 162.89 123.58Z" fill="black" stroke="black" stroke-width="2" stroke-miterlimit="10"/>
<path id="Vector_4" d="M185.97 131.43V115.71C185.97 113.79 186.29 112.36 186.93 111.43C187.57 110.5 188.55 110.04 189.87 110.04C190.66 110.04 191.36 110.25 191.98 110.66C192.59 111.07 193.13 111.7 193.6 112.54C194.44 111.62 195.41 110.95 196.51 110.53C197.61 110.11 198.94 109.9 200.51 109.9C203.59 109.9 205.95 110.78 207.58 112.54C209.21 114.3 210.03 116.86 210.03 120.22V131.44C210.03 133.36 209.71 134.79 209.06 135.73C208.41 136.67 207.43 137.14 206.1 137.14C204.77 137.14 203.79 136.67 203.14 135.73C202.49 134.79 202.17 133.36 202.17 131.44V122.6C202.17 120.42 201.84 118.87 201.19 117.94C200.54 117.01 199.46 116.55 197.96 116.55C196.54 116.55 195.49 117.03 194.81 117.99C194.13 118.95 193.79 120.46 193.79 122.51V131.45C193.79 133.37 193.47 134.8 192.82 135.74C192.17 136.68 191.19 137.15 189.86 137.15C188.53 137.15 187.55 136.68 186.92 135.74C186.28 134.8 185.96 133.37 185.96 131.45L185.97 131.43Z" fill="black" stroke="black" stroke-width="2" stroke-miterlimit="10"/>
<path id="Vector_5" d="M214.83 103.45C214.83 102.21 215.27 101.14 216.16 100.25C217.05 99.36 218.11 98.92 219.36 98.92C220.61 98.92 221.64 99.36 222.51 100.25C223.38 101.14 223.82 102.2 223.82 103.45C223.82 104.7 223.39 105.78 222.52 106.65C221.66 107.52 220.6 107.96 219.36 107.96C218.12 107.96 217.01 107.52 216.14 106.65C215.27 105.78 214.83 104.71 214.83 103.45ZM223.21 131.43C223.21 133.37 222.89 134.8 222.26 135.73C221.63 136.66 220.66 137.12 219.35 137.12C218.04 137.12 217.04 136.65 216.39 135.71C215.74 134.77 215.42 133.34 215.42 131.42V115.7C215.42 113.78 215.74 112.35 216.38 111.42C217.02 110.49 218.01 110.03 219.35 110.03C220.69 110.03 221.63 110.49 222.26 111.42C222.89 112.35 223.21 113.77 223.21 115.7V131.42V131.43Z" fill="black" stroke="black" stroke-width="2" stroke-miterlimit="10"/>
<path id="Vector_6" d="M230.41 117.57H230.12C228.75 117.57 227.67 117.27 226.89 116.66C226.11 116.05 225.71 115.23 225.71 114.2C225.71 113.17 226.1 112.31 226.89 111.73C227.67 111.15 228.85 110.82 230.42 110.74V107.3C230.42 105.38 230.74 103.95 231.39 103.01C232.04 102.07 233.02 101.6 234.35 101.6C235.68 101.6 236.63 102.07 237.27 103.01C237.91 103.95 238.23 105.38 238.23 107.3V110.74H238.91C240.46 110.74 241.67 111.05 242.53 111.66C243.39 112.27 243.83 113.12 243.83 114.2C243.83 115.28 243.41 116.15 242.58 116.72C241.75 117.29 240.51 117.57 238.86 117.57H238.23V131.43C238.23 133.37 237.91 134.8 237.28 135.73C236.65 136.66 235.67 137.12 234.35 137.12C233.03 137.12 232.04 136.65 231.39 135.71C230.74 134.77 230.42 133.34 230.42 131.42V117.56L230.41 117.57Z" fill="black" stroke="black" stroke-width="2" stroke-miterlimit="10"/>
<path id="Vector_7" d="M244.99 103.45C244.99 102.21 245.43 101.14 246.32 100.25C247.21 99.36 248.27 98.92 249.52 98.92C250.77 98.92 251.8 99.36 252.67 100.25C253.54 101.14 253.98 102.2 253.98 103.45C253.98 104.7 253.55 105.78 252.68 106.65C251.82 107.52 250.76 107.96 249.52 107.96C248.28 107.96 247.17 107.52 246.3 106.65C245.43 105.78 244.99 104.71 244.99 103.45ZM253.37 131.43C253.37 133.37 253.05 134.8 252.42 135.73C251.79 136.66 250.82 137.12 249.51 137.12C248.2 137.12 247.2 136.65 246.55 135.71C245.9 134.77 245.58 133.34 245.58 131.42V115.7C245.58 113.78 245.9 112.35 246.54 111.42C247.18 110.49 248.17 110.03 249.51 110.03C250.85 110.03 251.79 110.49 252.42 111.42C253.05 112.35 253.37 113.77 253.37 115.7V131.42V131.43Z" fill="black" stroke="black" stroke-width="2" stroke-miterlimit="10"/>
<path id="Vector_8" d="M263.36 133.37L256.55 116.05C256.4 115.65 256.3 115.29 256.23 114.97C256.17 114.65 256.13 114.3 256.11 113.92C256.11 112.82 256.47 111.9 257.19 111.16C257.91 110.42 258.8 110.05 259.87 110.05C260.85 110.05 261.66 110.35 262.29 110.95C262.92 111.55 263.45 112.52 263.89 113.88L268.15 127.47L272.39 113.37C272.71 112.3 273.18 111.5 273.79 110.96C274.4 110.42 275.16 110.15 276.04 110.15C277.14 110.15 278.03 110.5 278.71 111.2C279.39 111.9 279.73 112.83 279.73 113.97C279.73 114.34 279.68 114.74 279.58 115.16C279.48 115.58 279.33 116.04 279.12 116.54L272.53 133.62C271.96 135.07 271.35 136.08 270.69 136.62C270.03 137.17 269.15 137.44 268.05 137.44C266.95 137.44 266.01 137.16 265.32 136.6C264.63 136.04 263.98 134.96 263.35 133.37H263.36Z" fill="black" stroke="black" stroke-width="2" stroke-miterlimit="10"/>
<path id="Vector_9" d="M288.45 125.76C288.63 127.23 289.23 128.38 290.27 129.2C291.3 130.02 292.67 130.44 294.36 130.44C295.83 130.44 297.46 130.02 299.27 129.17C301.07 128.32 302.18 127.9 302.6 127.9C303.52 127.9 304.27 128.18 304.85 128.75C305.43 129.32 305.72 130.04 305.72 130.93C305.72 132.61 304.55 134.12 302.21 135.47C299.87 136.82 297.11 137.49 293.95 137.49C290.09 137.49 286.87 136.17 284.28 133.54C281.7 130.91 280.4 127.6 280.4 123.63C280.4 119.66 281.66 116.31 284.17 113.65C286.68 110.99 289.81 109.65 293.56 109.65C297.31 109.65 300.21 110.9 302.64 113.41C305.08 115.91 306.3 118.97 306.3 122.59C306.3 123.77 306.03 124.59 305.5 125.06C304.97 125.53 303.94 125.76 302.42 125.76H288.44H288.45ZM288.35 120.65H298.67C298.57 119.33 298.04 118.22 297.07 117.33C296.1 116.44 294.95 116 293.61 116C292.27 116 291.15 116.42 290.19 117.26C289.23 118.1 288.62 119.23 288.35 120.65Z" fill="black" stroke="black" stroke-width="2" stroke-miterlimit="10"/>
</g>
<g id="Group_3">
<path id="Vector_10" d="M167.61 168.88C167.61 173.36 166.02 176.99 162.83 179.77C159.65 182.55 155.45 183.93 150.25 183.93C146.26 183.93 142.85 183.21 140.02 181.78C137.19 180.35 135.78 178.67 135.78 176.74C135.78 175.37 136.24 174.26 137.15 173.42C138.06 172.58 139.28 172.16 140.82 172.16C141.58 172.16 143.16 172.54 145.58 173.3C148 174.06 150.03 174.44 151.69 174.44C153.12 174.44 154.32 174 155.28 173.12C156.24 172.24 156.72 171.14 156.72 169.83C156.72 168.42 156.23 167.28 155.25 166.42C154.27 165.56 152.16 164.64 148.92 163.66C144.23 162.27 140.95 160.61 139.09 158.7C137.23 156.79 136.29 154.21 136.29 150.97C136.29 146.81 137.79 143.41 140.79 140.77C143.79 138.13 147.7 136.81 152.51 136.81C156.05 136.81 158.97 137.44 161.26 138.7C163.55 139.96 164.7 141.53 164.7 143.41C164.7 144.76 164.3 145.82 163.49 146.59C162.68 147.36 161.56 147.74 160.13 147.74C159.33 147.74 158.03 147.48 156.23 146.96C154.43 146.44 153.07 146.18 152.14 146.18C150.62 146.18 149.42 146.53 148.52 147.24C147.62 147.95 147.17 148.87 147.17 150.02C147.17 151.84 149.16 153.38 153.13 154.63C154.05 154.92 154.77 155.14 155.28 155.31C159.56 156.74 162.68 158.55 164.65 160.73C166.62 162.91 167.6 165.63 167.6 168.89L167.61 168.88Z" fill="black"/>
<path id="Vector_11" d="M180.03 188.26C180.03 190.32 179.69 191.84 179 192.84C178.31 193.83 177.27 194.33 175.86 194.33C174.45 194.33 173.41 193.83 172.73 192.84C172.05 191.85 171.71 190.32 171.71 188.26V160.35C171.71 158.31 172.05 156.8 172.73 155.81C173.41 154.82 174.45 154.33 175.86 154.33C176.7 154.33 177.45 154.55 178.1 154.99C178.75 155.43 179.33 156.09 179.82 156.98C180.68 156.04 181.68 155.33 182.84 154.85C184 154.37 185.27 154.13 186.66 154.13C190.23 154.13 193.23 155.52 195.66 158.3C198.09 161.08 199.31 164.55 199.31 168.72C199.31 172.89 198.06 176.39 195.57 179.29C193.07 182.19 190.07 183.64 186.55 183.64C185.3 183.64 184.14 183.44 183.06 183.04C181.99 182.64 180.97 182.03 180.01 181.23V188.28L180.03 188.26ZM179.88 168.81C179.88 170.94 180.39 172.65 181.4 173.94C182.41 175.23 183.73 175.88 185.36 175.88C186.99 175.88 188.31 175.23 189.32 173.93C190.33 172.63 190.84 170.92 190.84 168.81C190.84 166.7 190.32 165.1 189.28 163.81C188.24 162.52 186.93 161.87 185.36 161.87C183.79 161.87 182.45 162.51 181.42 163.8C180.39 165.09 179.88 166.76 179.88 168.82V168.81Z" fill="black"/>
<path id="Vector_12" d="M221.34 180.21C220.5 181.24 219.48 182.02 218.29 182.56C217.1 183.1 215.8 183.37 214.39 183.37C210.84 183.37 207.85 181.97 205.43 179.18C203 176.39 201.79 172.89 201.79 168.71C201.79 164.53 203.04 161.1 205.55 158.27C208.05 155.44 211.11 154.03 214.71 154.03C216.12 154.03 217.36 154.27 218.45 154.75C219.54 155.23 220.5 155.98 221.34 156.99C221.82 156.12 222.39 155.46 223.06 155.01C223.73 154.56 224.47 154.34 225.3 154.34C226.69 154.34 227.72 154.83 228.39 155.81C229.06 156.79 229.39 158.31 229.39 160.36V177.05C229.39 179.09 229.05 180.61 228.37 181.6C227.69 182.59 226.67 183.09 225.3 183.09C224.37 183.09 223.59 182.86 222.96 182.4C222.33 181.94 221.79 181.21 221.34 180.21ZM210.38 168.61C210.38 170.65 210.88 172.29 211.87 173.54C212.86 174.78 214.16 175.4 215.75 175.4C217.34 175.4 218.59 174.77 219.58 173.51C220.57 172.25 221.07 170.62 221.07 168.61C221.07 166.6 220.57 165.06 219.57 163.83C218.57 162.6 217.29 161.98 215.75 161.98C214.21 161.98 212.88 162.59 211.88 163.82C210.88 165.05 210.37 166.65 210.37 168.62L210.38 168.61Z" fill="black"/>
<path id="Vector_13" d="M235.15 177.05V160.36C235.15 158.32 235.49 156.81 236.17 155.82C236.85 154.83 237.89 154.34 239.3 154.34C240.14 154.34 240.89 154.56 241.54 155C242.19 155.44 242.77 156.1 243.26 156.99C244.12 156.06 245.03 155.37 245.99 154.89C246.95 154.42 247.92 154.18 248.9 154.18C250.05 154.18 251.04 154.59 251.87 155.4C252.7 156.21 253.12 157.18 253.12 158.29C253.12 159.95 251.59 161.34 248.54 162.46C247.44 162.85 246.62 163.18 246.07 163.44C245.02 163.94 244.33 164.49 243.99 165.1C243.65 165.71 243.48 166.81 243.48 168.41V177.05C243.48 179.09 243.14 180.61 242.45 181.6C241.76 182.59 240.72 183.09 239.31 183.09C237.9 183.09 236.86 182.59 236.18 181.6C235.5 180.61 235.16 179.09 235.16 177.05H235.15Z" fill="black"/>
<path id="Vector_14" d="M263.47 163.88L270.54 156.55C271.29 155.76 272.01 155.19 272.7 154.83C273.39 154.47 274.08 154.29 274.78 154.29C275.76 154.29 276.58 154.61 277.26 155.24C277.94 155.87 278.28 156.63 278.28 157.5C278.28 158.15 278.09 158.83 277.71 159.53C277.33 160.23 276.82 160.89 276.17 161.51L270.59 166.65L278.33 175.78C278.9 176.45 279.31 177.1 279.56 177.75C279.81 178.4 279.95 179.07 279.95 179.77C279.95 180.73 279.58 181.54 278.83 182.2C278.08 182.86 277.16 183.19 276.06 183.19C275.25 183.19 274.49 182.98 273.78 182.56C273.07 182.14 272.39 181.49 271.74 180.62L263.46 169.56V177.04C263.46 179.1 263.12 180.64 262.43 181.66C261.74 182.68 260.7 183.19 259.29 183.19C257.88 183.19 256.86 182.68 256.18 181.66C255.49 180.64 255.15 179.1 255.15 177.04V148.59C255.15 146.53 255.49 145.01 256.17 144.01C256.85 143.02 257.89 142.52 259.3 142.52C260.71 142.52 261.75 143.03 262.44 144.04C263.13 145.05 263.47 146.57 263.47 148.59V163.87V163.88Z" fill="black"/>
</g>
</g>
<path id="Vector_15" d="M34.9 73.53C36 68.77 38.57 65.78 38.73 65.59C39.76 64.43 41.75 64.15 43.19 64.99C44.62 65.82 44.89 67.4 43.92 68.6C42.33 70.57 40.25 75.9 41.22 80.59C42.19 85.28 43.84 89.07 52.84 90.47C58.55 91.36 59.12 95.16 59.53 97.93C59.99 100.97 60.55 104.77 65.99 108.92C68.13 110.56 70.88 111.78 73.79 113.07C75.23 113.71 76.74 114.38 78.23 115.14C80.47 111.02 82.32 103.96 82.17 99.75C81.98 94.53 79.89 89.56 76.14 85.36L75.33 84.45L75.59 83.35C76.05 81.4 76.24 79.41 76.19 77.45C75.06 77.77 73.59 77.99 72.15 77.97C66.03 77.92 61.32 75.88 58.14 72.58C52.64 66.9 53.91 60.58 54.16 57.28C54.42 53.97 54.66 51.34 55.12 47.61C55.83 41.82 56.72 34.62 56.05 32.06C53.98 24.18 49.29 24.31 47.52 24.36C45.76 24.41 44.29 23.29 44.23 21.86C44.18 20.43 45.56 19.23 47.33 19.18C51.73 19.06 59.53 20.43 62.29 30.97C63.17 34.32 62.3 41.34 61.47 48.12C61.01 51.84 60.62 54.54 60.54 57.55C60.46 60.56 59.9 66.09 63.17 69.4C65.23 71.48 68.27 72.61 72.53 72.8C74.07 72.88 77.46 71.56 79.27 68.88C80.34 66.8 80.87 64.55 80.79 62.27C80.67 58.91 79.25 55.73 76.7 53.06L75.14 51.43L76.76 49.83C79.76 46.86 81.34 43.13 81.2 39.32C81.08 36.12 79.8 33.07 77.48 30.5L76.05 28.91L77.56 27.36C80.43 24.42 81.93 20.75 81.79 17.01C81.45 7.81 74.12 1.59 63.96 1.87C56.94 2.06 51.69 4.58 48.75 10.45C41.65 8.82 33.34 14.16 31.48 19.47C29.56 24.97 30.73 31.55 38.77 39.88C39.96 41.12 41.23 42.22 42.55 43.18C43.87 44.13 43.98 45.77 42.81 46.84C42.2 47.4 41.37 47.69 40.52 47.72C39.73 47.74 38.93 47.53 38.3 47.07C36.7 45.91 35.16 44.58 33.74 43.1C27.99 37.14 25.94 30.44 25.22 25.9C13.08 33.08 11.51 46.3 17.05 53.57C9.96 62.81 20.98 74.12 34.91 73.55L34.9 73.53Z" fill="#04B3FF" stroke="black" stroke-width="3" stroke-miterlimit="10"/>
<path id="Vector_16" d="M70.7 117.62C67.46 116.44 64.34 114.79 61.61 112.71C54.48 107.27 53.71 102.04 53.19 98.57C52.77 95.75 52.64 95.73 51.61 95.57C46.42 94.76 42.85 93.31 40.37 91.46C37.29 92.63 34.26 93.15 31.47 93.23C23.25 93.46 16.95 90.11 16.59 89.91C15.13 89.12 14.74 87.51 15.72 86.31C16.7 85.12 18.69 84.8 20.14 85.58C20.49 85.77 28.17 89.77 36.62 87.14C35.8 85.63 34.19 82.47 34.29 78.75C20.88 79.07 8.47 72.21 7.94 60.73C-9.39 82.77 11.26 103.42 34.81 109.26C41.15 110.83 45.72 116.33 45.78 122.05C45.78 123.05 45.63 124.55 44.93 126.24C47.43 126.65 50.38 127.39 53.32 128.56C52.6 124.63 53.17 121.35 53.21 121.13C53.47 119.71 55.1 118.74 56.83 118.93C58.57 119.13 59.77 120.45 59.52 121.86C59.51 121.93 58.06 130.18 62.27 134.04C64.51 136.09 66.74 139.49 67.38 143.27C67.62 144.69 66.4 146 64.65 146.2C64.53 146.21 64.42 146.22 64.3 146.22C62.69 146.26 61.27 145.32 61.05 143.99C59.16 132.92 46.04 131.39 41.41 130.99C39.31 132.83 36.25 134.59 31.72 135.9C31.4 135.99 31.08 136.04 30.76 136.05C29.41 136.09 28.13 135.42 27.65 134.33C27.06 132.98 27.94 131.5 29.6 131.02C35.95 129.18 39.43 126.02 39.39 122.12C39.36 118.66 36.46 115.18 32.79 114.19C19.67 110.68 10.04 104.94 4.08 97.11C-3.62 114.53 13.07 121.93 23.74 120.84C25.47 120.69 27.08 121.67 27.3 123.09C27.51 124.51 26.26 125.81 24.51 125.99C23.64 126.08 22.8 126.13 21.97 126.15C18.29 126.25 15.03 125.74 12.22 124.93C9.71 134.55 21.09 150.6 41.87 144C44.47 156.62 65.96 162.45 78.36 150.46C90.55 138.67 82.09 121.74 70.71 117.6L70.7 117.62Z" fill="#ABFCFF" stroke="black" stroke-width="3" stroke-miterlimit="10"/>
<path id="Vector_17" d="M123.56 91.53C130.8 94.4 121.42 71.23 119.98 69.23C119.11 68.01 119.35 66.41 120.64 65.57C121.94 64.73 123.73 65 124.67 66.18C124.82 66.37 127.14 69.4 128.13 74.23C140.71 74.8 150.68 63.34 144.27 53.96C149.27 46.59 147.86 33.17 136.88 25.89C136.23 30.49 134.37 37.3 129.18 43.34C127.89 44.84 126.51 46.19 125.06 47.36C124.49 47.82 123.77 48.04 123.05 48.02C122.29 48 121.53 47.7 120.98 47.13C119.92 46.04 120.02 44.38 121.21 43.42C122.4 42.45 123.55 41.33 124.63 40.08C131.9 31.63 132.96 24.95 131.22 19.37C129.54 13.99 122.03 8.57 115.61 10.22C112.96 4.26 108.21 1.71 101.87 1.51C92.69 1.23 86.06 7.55 85.75 16.87C85.63 20.66 86.98 24.39 89.57 27.37L90.94 28.95L89.64 30.56C87.55 33.17 86.38 36.26 86.28 39.51C86.15 43.37 87.58 47.16 90.29 50.17L91.75 51.8L90.34 53.46C88.04 56.17 86.76 59.4 86.65 62.81C86.57 65.12 87.06 67.41 88.02 69.51C89.66 72.23 92.72 73.57 94.12 73.48C97.97 73.28 100.72 72.14 102.58 70.03C105.54 66.67 105.03 61.05 104.96 58.01C104.89 54.96 104.54 52.22 104.12 48.45C103.36 41.57 102.58 34.45 103.38 31.05C105.87 20.36 112.92 18.97 116.9 19.09C118.49 19.14 119.75 20.36 119.7 21.81C119.65 23.26 118.32 24.4 116.73 24.35C115.13 24.3 110.89 24.17 109.03 32.16C108.42 34.76 109.22 42.07 109.87 47.94C110.29 51.73 110.5 54.4 110.74 57.75C110.97 61.11 112.12 67.51 107.15 73.28C104.27 76.62 100.02 78.69 94.49 78.74C93.19 78.75 91.86 78.53 90.84 78.21C90.8 80.2 90.97 82.22 91.38 84.2L91.61 85.32L90.88 86.24C87.49 90.5 87.27 96.29 87.09 101.58C87.09 101.58 99.77 82.1 123.56 91.53Z" fill="#D9E021" stroke="black" stroke-width="3" stroke-miterlimit="10"/>
<g id="Group_4">
<g id="Group_5">
<g id="Group_6">
<path id="Vector_18" d="M293.54 141.83C293.5 144.21 293.15 146.64 291.97 148.71C290.8 150.78 288.67 152.42 286.3 152.51C288.65 152.73 290.89 153.95 292.33 155.82C293.78 157.68 294.41 160.15 294.05 162.48C294.52 160.26 295.18 158.04 296.48 156.18C297.77 154.32 299.78 152.85 302.03 152.65C299.54 152.33 297.2 150.96 295.69 148.95C294.18 146.94 293.53 144.31 293.92 141.83" fill="#04B3FF"/>
<path id="Vector_19" d="M292.54 141.83C292.45 145.73 291.07 151.18 286.3 151.51C285 151.6 285.03 153.37 286.3 153.51C290.55 153.99 293.67 157.96 293.09 162.21C292.92 163.44 294.74 164.03 295.02 162.74C295.83 159 297.6 154.16 302.04 153.64C303.04 153.52 303.53 151.86 302.31 151.68C297.67 150.99 294.25 146.83 294.91 142.08C295.09 140.82 293.16 140.28 292.98 141.55C292.18 147.29 295.95 152.74 301.78 153.61C301.87 152.96 301.96 152.3 302.05 151.65C296.62 152.28 294.14 157.42 293.1 162.22L295.03 162.75C295.8 157.12 291.97 152.15 286.31 151.52V153.52C288.85 153.34 290.98 151.94 292.43 149.88C294.06 147.55 294.49 144.61 294.55 141.84C294.58 140.55 292.58 140.55 292.55 141.84L292.54 141.83Z" fill="black"/>
</g>
<g id="Group_7">
<path id="Vector_20" d="M285.73 162.13C286.18 166.85 283.06 171.67 278.56 173.18C280.58 172.48 282.75 174.04 283.77 175.92C284.79 177.79 285.09 179.98 285.98 181.93C285.33 178.4 287.43 174.55 290.76 173.19C288.7 173.11 286.94 171.49 286.15 169.58C285.36 167.67 285.37 165.54 285.55 163.48" fill="#ABFCFF"/>
<path id="Vector_21" d="M284.73 162.13C285.08 166.46 282.43 170.76 278.3 172.22C277.1 172.64 277.58 174.52 278.83 174.15C280.69 173.6 282.3 175.19 283.07 176.73C283.97 178.54 284.31 180.58 285.12 182.44C285.61 183.56 287.12 182.69 286.95 181.67C286.42 178.48 288.35 175.32 291.27 174.06C292.27 173.63 291.64 172.26 290.77 172.2C286.59 171.9 286.3 166.6 286.55 163.49C286.65 162.21 284.65 162.21 284.55 163.49C284.35 165.97 284.39 168.63 285.67 170.85C286.75 172.73 288.59 174.04 290.77 174.19L290.27 172.33C286.47 173.97 284.37 178.18 285.03 182.2L286.86 181.43C285.86 179.13 285.59 176.5 284.02 174.48C282.67 172.75 280.52 171.58 278.31 172.23C278.49 172.87 278.66 173.52 278.84 174.16C283.77 172.42 287.17 167.39 286.74 162.14C286.64 160.87 284.64 160.85 284.74 162.14L284.73 162.13Z" fill="black"/>
</g>
</g>
<g id="Group_8">
<path id="Vector_22" d="M306.8 157.28C306.71 160.04 305.11 162.58 303.04 164.41C300.97 166.24 298.46 167.48 295.98 168.69C298.88 168.32 301.8 169.8 303.75 171.99C305.69 174.18 306.79 176.99 307.55 179.82C307.9 177.31 308.68 174.79 310.24 172.79C311.81 170.79 314.26 169.38 316.79 169.51C311.56 167.81 307.6 162.76 307.2 157.28" fill="#D9E021"/>
<path id="Vector_23" d="M305.8 157.28C305.48 162.84 299.85 165.68 295.47 167.83C294.61 168.25 294.99 169.79 295.97 169.69C302.05 169.07 305.21 175.12 306.57 180.08C306.81 180.96 308.35 181.1 308.5 180.08C309.15 175.67 311.56 170.39 316.78 170.5C317.95 170.53 318.08 168.89 317.05 168.54C312.23 166.9 308.63 162.36 308.19 157.28C308.08 156.01 306.08 156 306.19 157.28C306.71 163.29 310.8 168.53 316.52 170.47L316.79 168.51C310.68 168.37 307.37 174.23 306.58 179.55H308.51C306.92 173.77 302.96 166.97 295.98 167.69L296.48 169.55C301.62 167.03 307.43 163.67 307.8 157.27C307.87 155.98 305.87 155.99 305.8 157.27V157.28Z" fill="black"/>
</g>
</g>
</g>
<defs>
<clipPath id="clip0_1_2">
<rect width="317.76" height="194.33" fill="white"/>
</clipPath>
</defs>
</svg>
