<svg width="800" height="800" viewBox="0 0 800 800" fill="none" xmlns="http://www.w3.org/2000/svg">
<g id="Mary&#39;s_monogram_(Marist_Brothers) 1">
<g id="Group">
<g id="Mary_monogram">
<path id="Vector" d="M550.41 283.074C564.947 277.825 631.684 272.234 631.684 313.067C631.684 325.726 622.768 334.124 609.797 334.425C581.014 334.999 592.764 301.007 591.847 301.007C522.884 301.007 550.702 449.088 553.514 472.288C552.876 490.837 542.047 496.7 528.476 497.346C516.38 497.65 509.922 492.075 506.485 482.496C501.535 468.883 500.339 336.859 568.01 292.982C549.443 292.982 494.139 329.778 470.33 403.028C471.868 406.451 472.789 443.533 470.622 457.733C470.013 477.254 465.052 490.221 447.142 490.221C432.578 490.221 422.112 479.417 423.924 457.733C427.374 418.784 441.268 305.05 401.69 286.776C359.641 302.564 379.714 448.174 379.714 457.733C380.38 472.904 376.955 490.221 355.023 490.221C331.199 490.221 331.817 475.084 331.491 457.441C331.491 442.311 332.444 415.712 333.641 403.028C301.238 325.099 254.547 292.644 236.59 292.644C304.339 336.859 302.439 468.883 297.467 482.496C294.102 492.075 287.921 497.65 275.856 497.346C262.253 496.392 251.084 489.587 250.791 471.958C253.305 449.087 280.796 301.006 211.879 301.006C210.914 301.006 222.979 334.998 193.967 334.424C180.951 334.123 171.975 325.726 171.975 313.066C171.975 272.233 238.742 277.499 253.305 283.073C286.998 295.423 318.537 331.308 336.773 373.971C344.2 330.071 369.883 279.053 401.69 273.483C433.563 278.749 458.28 330.071 466.934 373.354C484.23 333.786 507.739 302.219 550.41 283.074Z" fill="white"/>
<path id="Vector_2" d="M255.149 526.092C255.149 514.625 264.727 505.375 276.189 505.375C287.607 505.375 297.174 514.625 297.174 526.092C297.174 537.85 287.607 547.096 276.189 547.096C264.727 547.096 255.149 537.85 255.149 526.092Z" fill="white"/>
<path id="Vector_3" d="M333.03 521.134C333.03 509.708 342.356 500.421 354.1 500.421C365.501 500.421 374.799 509.708 374.799 521.134C374.799 532.867 365.501 542.151 354.1 542.151C342.356 542.151 333.03 532.867 333.03 521.134Z" fill="white"/>
<path id="Vector_4" d="M427.374 518.975C427.374 507.209 436.939 497.95 448.347 497.95C459.838 497.95 469.397 507.209 469.397 518.975C469.397 530.383 459.838 539.675 448.347 539.675C436.939 539.675 427.374 530.383 427.374 518.975Z" fill="white"/>
<path id="Vector_5" d="M507.144 525.138C507.144 513.705 516.38 504.438 528.168 504.438C539.589 504.438 549.156 513.705 549.156 525.138C549.156 536.896 539.589 546.184 528.168 546.184C516.38 546.184 507.144 536.896 507.144 525.138Z" fill="white"/>
<path id="Vector_6" d="M402.63 769.401C402.63 769.401 402.312 769.693 401.983 769.693C359.332 763.808 376.345 697.034 398.301 639.847C393.056 624.384 384.385 603.688 371.71 586.988C365.83 635.83 330.279 781.443 189.288 768.134C188.351 767.842 187.123 767.842 186.215 767.568C186.215 767.568 186.215 767.568 186.215 767.842C183.114 771.247 178.468 773.718 173.524 773.718C166.093 773.718 159.628 768.463 157.439 761.683C49.5693 746.505 61.6293 612.338 22.9703 604.909C43.9656 603.067 56.6613 619.772 68.4168 642.334C67.5097 603.067 86.3129 563.167 89.7346 544.625C92.5138 534.125 77.6814 525.476 68.4168 533.792C62.8302 541.213 61.629 547.096 64.9952 560.075C56.966 562.254 48.0192 543.7 60.0511 531.342C72.7137 515.867 98.3933 521.134 98.7146 541.521C90.7031 589.442 67.1874 629.647 83.2161 666.45C85.0952 671.072 86.6495 676.034 87.2803 677.563C72.1315 613.284 158.374 528.263 160.861 501.65C163.302 483.713 134.571 480.329 149.716 509.417C139.189 508.766 133.623 497.65 135.824 489.883C136.443 482.167 143.868 476.604 151.881 476.604C160.556 477.55 168.556 484.354 170.147 491.137C173.23 503.213 163.64 528.55 142.933 558.246C112.342 601.504 88.5051 653.459 102.429 687.8C111.374 628.104 158.724 633.058 183.716 592.554C201.962 563.513 150.335 548.317 167.644 594.104C143.515 588.825 153.109 559.141 171.974 555.449C181.568 553.608 195.162 560.387 197.62 574.283C200.749 584.825 193.641 606.446 168.556 627.192C211.557 623.767 235.348 660.279 210.023 675.405C210.311 623.162 114.461 640.475 112.928 693.337C158.374 625.025 212.183 699.212 170.423 715.592C158.375 717.43 150.944 714.062 146.619 706.946C146.005 706.025 166.093 709.704 167.644 695.505C167.356 688.075 159.925 683.129 154.965 683.454C139.189 684.042 119.129 719.633 160.861 746.825C163.961 743.45 168.556 740.938 173.523 740.938C181.568 740.938 188.351 746.825 189.609 754.862C189.897 754.562 190.223 755.162 191.158 754.862C262.545 748.658 248.337 629.646 247.408 587.908C246.493 544.012 300.302 545.875 299.659 581.72C299.659 614.47 274.919 731.983 235.059 753.012C290.728 748.658 328.744 666.746 328.744 580.179C328.744 546.795 358.712 546.184 369.239 561.954C377.284 572.437 389.943 597.192 401.982 626.884L402.629 625.621V656.841C402.312 655.946 402.312 654.996 401.982 654.075C400.441 659.355 399.203 662.75 399.203 662.75C390.553 696.125 388.738 727.667 388.738 727.667C387.477 736.938 387.778 756.73 402.312 757.917H402.629L402.63 769.401ZM611.63 767.205C475.605 778.98 438.472 642.334 431.057 590.096C420.253 606.792 412.514 625.325 407.574 639.563C428.9 695.813 441.268 761.683 402.63 769.401L402.63 757.917C407.867 756.409 419.333 750.547 416.526 727.668C416.526 727.668 412.514 696.126 403.542 662.751C403.542 662.751 403.542 660.567 402.63 656.842V625.622C413.157 599.98 424.856 577.717 430.764 565.642C431.366 564.109 431.992 562.576 432.933 561.297L432.578 561.018L433.226 560.388C433.226 560.713 432.933 560.713 432.933 561.018C443.434 545.276 473.726 545.568 473.726 579.242C473.726 665.505 511.455 747.43 567.08 752.092C527.534 730.764 502.793 613.559 502.793 580.8C501.881 544.947 555.647 543.079 554.709 586.988C554.122 628.418 539.884 745.93 610.105 753.635C611.297 745.931 618.114 740.03 626.152 740.03C631.072 740.03 635.752 742.514 638.831 745.931C680.564 718.697 660.456 683.13 645.034 682.518C639.743 682.189 632.355 687.164 632.355 694.585C633.585 708.789 653.681 705.089 653.06 706.026C648.985 713.114 641.627 716.51 629.535 714.672C587.801 698.272 641.289 624.08 687.052 692.409C685.201 639.564 589.656 622.218 589.656 674.485C564.297 659.356 588.388 622.852 631.389 626.264C606.052 605.534 598.956 583.893 602.043 573.376C604.806 559.476 618.115 552.671 628.031 554.531C646.539 558.247 656.418 587.91 632.027 593.16C649.689 547.397 597.993 562.576 615.918 591.647C641.289 632.139 688.273 627.193 697.544 686.843C711.176 652.535 687.369 600.572 656.755 557.305C636.039 527.642 626.773 502.284 629.535 490.221C631.072 483.425 639.114 476.604 647.797 475.684C655.839 475.684 663.56 481.246 664.189 488.972C666.311 496.701 660.456 507.842 649.959 508.475C665.126 479.418 636.393 482.789 639.115 500.73C641.627 527.339 727.58 612.338 712.719 676.643C713.01 675.123 714.885 670.14 716.723 665.506C732.494 628.727 709.331 588.522 700.984 540.597C701.26 520.214 726.964 514.931 739.627 530.384C751.689 542.78 743.006 561.297 734.981 559.143C738.369 546.185 737.156 540.292 731.56 532.868C721.984 524.564 707.152 533.197 710.231 543.701C713.31 562.255 732.202 602.13 731.264 641.414C743.347 618.848 755.685 602.13 777.035 603.976C738.369 611.097 750.127 745.593 642.181 760.743C640.372 767.569 633.86 772.806 626.152 772.806C621.21 772.806 616.893 770.31 613.755 766.931C613.755 766.635 613.755 766.635 613.755 766.635C612.847 766.931 612.847 766.931 611.63 767.206V767.205Z" fill="white"/>
</g>
<g id="Stars_crown">
<g id="star">
<g id="cone">
<path id="triangle" d="M400 30L390.729 58.5317L404.995 63.167L400 30Z" fill="white"/>
<path id="Vector_7" d="M400 30L409.271 58.5317L395.005 63.167L400 30Z" fill="white"/>
</g>
<g id="cone_2">
<path id="triangle_2" d="M428.532 50.7295H398.532V65.7295L428.532 50.7295Z" fill="white"/>
<path id="Vector_8" d="M428.532 50.7295L404.261 68.3631L395.444 56.2278L428.532 50.7295Z" fill="white"/>
</g>
<g id="cone_3">
<path id="triangle_3" d="M371.468 50.7295L395.739 68.3631L404.556 56.2278L371.468 50.7295Z" fill="white"/>
<path id="Vector_9" d="M371.468 50.7295H401.468V65.7295L371.468 50.7295Z" fill="white"/>
</g>
<g id="cone_4">
<path id="triangle_4" d="M417.634 84.2705L408.363 55.7388L394.097 60.3741L417.634 84.2705Z" fill="white"/>
<path id="Vector_10" d="M417.634 84.2705L393.363 66.6369L402.18 54.5017L417.634 84.2705Z" fill="white"/>
</g>
<g id="cone_5">
<path id="triangle_5" d="M382.366 84.2705L406.637 66.6369L397.82 54.5017L382.366 84.2705Z" fill="white"/>
<path id="Vector_11" d="M382.366 84.2705L391.637 55.7388L405.903 60.3741L382.366 84.2705Z" fill="white"/>
</g>
</g>
<g id="star_2">
<g id="cone_6">
<path id="triangle_6" d="M480 35L470.729 63.5317L484.995 68.167L480 35Z" fill="white"/>
<path id="Vector_12" d="M480 35L489.271 63.5317L475.005 68.167L480 35Z" fill="white"/>
</g>
<g id="cone_7">
<path id="triangle_7" d="M508.532 55.7295H478.532V70.7295L508.532 55.7295Z" fill="white"/>
<path id="Vector_13" d="M508.532 55.7295L484.261 73.3631L475.444 61.2278L508.532 55.7295Z" fill="white"/>
</g>
<g id="cone_8">
<path id="triangle_8" d="M451.468 55.7295L475.739 73.3631L484.556 61.2278L451.468 55.7295Z" fill="white"/>
<path id="Vector_14" d="M451.468 55.7295H481.468V70.7295L451.468 55.7295Z" fill="white"/>
</g>
<g id="cone_9">
<path id="triangle_9" d="M497.634 89.2705L488.363 60.7388L474.097 65.3741L497.634 89.2705Z" fill="white"/>
<path id="Vector_15" d="M497.634 89.2705L473.363 71.6369L482.18 59.5017L497.634 89.2705Z" fill="white"/>
</g>
<g id="cone_10">
<path id="triangle_10" d="M462.366 89.2705L486.637 71.6369L477.82 59.5017L462.366 89.2705Z" fill="white"/>
<path id="Vector_16" d="M462.366 89.2705L471.637 60.7388L485.903 65.3741L462.366 89.2705Z" fill="white"/>
</g>
</g>
<g id="star_3">
<g id="cone_11">
<path id="triangle_11" d="M550 55L540.73 83.5317L554.995 88.167L550 55Z" fill="white"/>
<path id="Vector_17" d="M550 55L559.271 83.5317L545.005 88.167L550 55Z" fill="white"/>
</g>
<g id="cone_12">
<path id="triangle_12" d="M578.532 75.7295H548.532V90.7295L578.532 75.7295Z" fill="white"/>
<path id="Vector_18" d="M578.532 75.7295L554.261 93.3631L545.444 81.2278L578.532 75.7295Z" fill="white"/>
</g>
<g id="cone_13">
<path id="triangle_13" d="M521.468 75.7295L545.739 93.3631L554.556 81.2278L521.468 75.7295Z" fill="white"/>
<path id="Vector_19" d="M521.468 75.7295H551.468V90.7295L521.468 75.7295Z" fill="white"/>
</g>
<g id="cone_14">
<path id="triangle_14" d="M567.634 109.271L558.363 80.7388L544.097 85.3741L567.634 109.271Z" fill="white"/>
<path id="Vector_20" d="M567.634 109.271L543.363 91.6369L552.18 79.5017L567.634 109.271Z" fill="white"/>
</g>
<g id="cone_15">
<path id="triangle_15" d="M532.366 109.271L556.637 91.6369L547.82 79.5017L532.366 109.271Z" fill="white"/>
<path id="Vector_21" d="M532.366 109.271L541.637 80.7388L555.903 85.3741L532.366 109.271Z" fill="white"/>
</g>
</g>
<g id="star_4">
<g id="cone_16">
<path id="triangle_16" d="M600 100L590.73 128.532L604.995 133.167L600 100Z" fill="white"/>
<path id="Vector_22" d="M600 100L609.271 128.532L595.005 133.167L600 100Z" fill="white"/>
</g>
<g id="cone_17">
<path id="triangle_17" d="M628.532 120.729H598.532V135.729L628.532 120.729Z" fill="white"/>
<path id="Vector_23" d="M628.532 120.729L604.261 138.363L595.444 126.228L628.532 120.729Z" fill="white"/>
</g>
<g id="cone_18">
<path id="triangle_18" d="M571.468 120.729L595.739 138.363L604.556 126.228L571.468 120.729Z" fill="white"/>
<path id="Vector_24" d="M571.468 120.729H601.468V135.729L571.468 120.729Z" fill="white"/>
</g>
<g id="cone_19">
<path id="triangle_19" d="M617.634 154.271L608.363 125.739L594.097 130.374L617.634 154.271Z" fill="white"/>
<path id="Vector_25" d="M617.634 154.271L593.363 136.637L602.18 124.502L617.634 154.271Z" fill="white"/>
</g>
<g id="cone_20">
<path id="triangle_20" d="M582.366 154.271L606.637 136.637L597.82 124.502L582.366 154.271Z" fill="white"/>
<path id="Vector_26" d="M582.366 154.271L591.637 125.739L605.903 130.374L582.366 154.271Z" fill="white"/>
</g>
</g>
<g id="star_5">
<g id="cone_21">
<path id="triangle_21" d="M550 145L540.73 173.532L554.995 178.167L550 145Z" fill="white"/>
<path id="Vector_27" d="M550 145L559.271 173.532L545.005 178.167L550 145Z" fill="white"/>
</g>
<g id="cone_22">
<path id="triangle_22" d="M578.532 165.729H548.532V180.729L578.532 165.729Z" fill="white"/>
<path id="Vector_28" d="M578.532 165.729L554.261 183.363L545.444 171.228L578.532 165.729Z" fill="white"/>
</g>
<g id="cone_23">
<path id="triangle_23" d="M521.468 165.729L545.739 183.363L554.556 171.228L521.468 165.729Z" fill="white"/>
<path id="Vector_29" d="M521.468 165.729H551.468V180.729L521.468 165.729Z" fill="white"/>
</g>
<g id="cone_24">
<path id="triangle_24" d="M567.634 199.271L558.363 170.739L544.097 175.374L567.634 199.271Z" fill="white"/>
<path id="Vector_30" d="M567.634 199.271L543.363 181.637L552.18 169.502L567.634 199.271Z" fill="white"/>
</g>
<g id="cone_25">
<path id="triangle_25" d="M532.366 199.271L556.637 181.637L547.82 169.502L532.366 199.271Z" fill="white"/>
<path id="Vector_31" d="M532.366 199.271L541.637 170.739L555.903 175.374L532.366 199.271Z" fill="white"/>
</g>
</g>
<g id="star_6">
<g id="cone_26">
<path id="triangle_26" d="M480 165L470.729 193.532L484.995 198.167L480 165Z" fill="white"/>
<path id="Vector_32" d="M480 165L489.271 193.532L475.005 198.167L480 165Z" fill="white"/>
</g>
<g id="cone_27">
<path id="triangle_27" d="M508.532 185.729H478.532V200.729L508.532 185.729Z" fill="white"/>
<path id="Vector_33" d="M508.532 185.729L484.261 203.363L475.444 191.228L508.532 185.729Z" fill="white"/>
</g>
<g id="cone_28">
<path id="triangle_28" d="M451.468 185.729L475.739 203.363L484.556 191.228L451.468 185.729Z" fill="white"/>
<path id="Vector_34" d="M451.468 185.729H481.468V200.729L451.468 185.729Z" fill="white"/>
</g>
<g id="cone_29">
<path id="triangle_29" d="M497.634 219.271L488.363 190.739L474.097 195.374L497.634 219.271Z" fill="white"/>
<path id="Vector_35" d="M497.634 219.271L473.363 201.637L482.18 189.502L497.634 219.271Z" fill="white"/>
</g>
<g id="cone_30">
<path id="triangle_30" d="M462.366 219.271L486.637 201.637L477.82 189.502L462.366 219.271Z" fill="white"/>
<path id="Vector_36" d="M462.366 219.271L471.637 190.739L485.903 195.374L462.366 219.271Z" fill="white"/>
</g>
</g>
<g id="star_7">
<g id="cone_31">
<path id="triangle_31" d="M400 170L390.729 198.532L404.995 203.167L400 170Z" fill="white"/>
<path id="Vector_37" d="M400 170L409.271 198.532L395.005 203.167L400 170Z" fill="white"/>
</g>
<g id="cone_32">
<path id="triangle_32" d="M428.532 190.729H398.532V205.729L428.532 190.729Z" fill="white"/>
<path id="Vector_38" d="M428.532 190.729L404.261 208.363L395.444 196.228L428.532 190.729Z" fill="white"/>
</g>
<g id="cone_33">
<path id="triangle_33" d="M371.468 190.729L395.739 208.363L404.556 196.228L371.468 190.729Z" fill="white"/>
<path id="Vector_39" d="M371.468 190.729H401.468V205.729L371.468 190.729Z" fill="white"/>
</g>
<g id="cone_34">
<path id="triangle_34" d="M417.634 224.271L408.363 195.739L394.097 200.374L417.634 224.271Z" fill="white"/>
<path id="Vector_40" d="M417.634 224.271L393.363 206.637L402.18 194.502L417.634 224.271Z" fill="white"/>
</g>
<g id="cone_35">
<path id="triangle_35" d="M382.366 224.271L406.637 206.637L397.82 194.502L382.366 224.271Z" fill="white"/>
<path id="Vector_41" d="M382.366 224.271L391.637 195.739L405.903 200.374L382.366 224.271Z" fill="white"/>
</g>
</g>
<g id="star_8">
<g id="cone_36">
<path id="triangle_36" d="M320 165L310.729 193.532L324.995 198.167L320 165Z" fill="white"/>
<path id="Vector_42" d="M320 165L329.271 193.532L315.005 198.167L320 165Z" fill="white"/>
</g>
<g id="cone_37">
<path id="triangle_37" d="M348.532 185.729H318.532V200.729L348.532 185.729Z" fill="white"/>
<path id="Vector_43" d="M348.532 185.729L324.261 203.363L315.444 191.228L348.532 185.729Z" fill="white"/>
</g>
<g id="cone_38">
<path id="triangle_38" d="M291.468 185.729L315.739 203.363L324.556 191.228L291.468 185.729Z" fill="white"/>
<path id="Vector_44" d="M291.468 185.729H321.468V200.729L291.468 185.729Z" fill="white"/>
</g>
<g id="cone_39">
<path id="triangle_39" d="M337.634 219.271L328.363 190.739L314.097 195.374L337.634 219.271Z" fill="white"/>
<path id="Vector_45" d="M337.634 219.271L313.363 201.637L322.18 189.502L337.634 219.271Z" fill="white"/>
</g>
<g id="cone_40">
<path id="triangle_40" d="M302.366 219.271L326.637 201.637L317.82 189.502L302.366 219.271Z" fill="white"/>
<path id="Vector_46" d="M302.366 219.271L311.637 190.739L325.903 195.374L302.366 219.271Z" fill="white"/>
</g>
</g>
<g id="star_9">
<g id="cone_41">
<path id="triangle_41" d="M250 145L240.729 173.532L254.995 178.167L250 145Z" fill="white"/>
<path id="Vector_47" d="M250 145L259.271 173.532L245.005 178.167L250 145Z" fill="white"/>
</g>
<g id="cone_42">
<path id="triangle_42" d="M278.532 165.729H248.532V180.729L278.532 165.729Z" fill="white"/>
<path id="Vector_48" d="M278.532 165.729L254.261 183.363L245.444 171.228L278.532 165.729Z" fill="white"/>
</g>
<g id="cone_43">
<path id="triangle_43" d="M221.468 165.729L245.739 183.363L254.556 171.228L221.468 165.729Z" fill="white"/>
<path id="Vector_49" d="M221.468 165.729H251.468V180.729L221.468 165.729Z" fill="white"/>
</g>
<g id="cone_44">
<path id="triangle_44" d="M267.634 199.271L258.363 170.739L244.097 175.374L267.634 199.271Z" fill="white"/>
<path id="Vector_50" d="M267.634 199.271L243.363 181.637L252.18 169.502L267.634 199.271Z" fill="white"/>
</g>
<g id="cone_45">
<path id="triangle_45" d="M232.366 199.271L256.637 181.637L247.82 169.502L232.366 199.271Z" fill="white"/>
<path id="Vector_51" d="M232.366 199.271L241.637 170.739L255.903 175.374L232.366 199.271Z" fill="white"/>
</g>
</g>
<g id="star_10">
<g id="cone_46">
<path id="triangle_46" d="M200 100L190.73 128.532L204.995 133.167L200 100Z" fill="white"/>
<path id="Vector_52" d="M200 100L209.271 128.532L195.005 133.167L200 100Z" fill="white"/>
</g>
<g id="cone_47">
<path id="triangle_47" d="M228.532 120.729H198.532V135.729L228.532 120.729Z" fill="white"/>
<path id="Vector_53" d="M228.532 120.729L204.261 138.363L195.444 126.228L228.532 120.729Z" fill="white"/>
</g>
<g id="cone_48">
<path id="triangle_48" d="M171.468 120.729L195.739 138.363L204.556 126.228L171.468 120.729Z" fill="white"/>
<path id="Vector_54" d="M171.468 120.729H201.468V135.729L171.468 120.729Z" fill="white"/>
</g>
<g id="cone_49">
<path id="triangle_49" d="M217.634 154.271L208.363 125.739L194.097 130.374L217.634 154.271Z" fill="white"/>
<path id="Vector_55" d="M217.634 154.271L193.363 136.637L202.18 124.502L217.634 154.271Z" fill="white"/>
</g>
<g id="cone_50">
<path id="triangle_50" d="M182.366 154.271L206.637 136.637L197.82 124.502L182.366 154.271Z" fill="white"/>
<path id="Vector_56" d="M182.366 154.271L191.637 125.739L205.903 130.374L182.366 154.271Z" fill="white"/>
</g>
</g>
<g id="star_11">
<g id="cone_51">
<path id="triangle_51" d="M250 55L240.729 83.5317L254.995 88.167L250 55Z" fill="white"/>
<path id="Vector_57" d="M250 55L259.271 83.5317L245.005 88.167L250 55Z" fill="white"/>
</g>
<g id="cone_52">
<path id="triangle_52" d="M278.532 75.7295H248.532V90.7295L278.532 75.7295Z" fill="white"/>
<path id="Vector_58" d="M278.532 75.7295L254.261 93.3631L245.444 81.2278L278.532 75.7295Z" fill="white"/>
</g>
<g id="cone_53">
<path id="triangle_53" d="M221.468 75.7295L245.739 93.3631L254.556 81.2278L221.468 75.7295Z" fill="white"/>
<path id="Vector_59" d="M221.468 75.7295H251.468V90.7295L221.468 75.7295Z" fill="white"/>
</g>
<g id="cone_54">
<path id="triangle_54" d="M267.634 109.271L258.363 80.7388L244.097 85.3741L267.634 109.271Z" fill="white"/>
<path id="Vector_60" d="M267.634 109.271L243.363 91.6369L252.18 79.5017L267.634 109.271Z" fill="white"/>
</g>
<g id="cone_55">
<path id="triangle_55" d="M232.366 109.271L256.637 91.6369L247.82 79.5017L232.366 109.271Z" fill="white"/>
<path id="Vector_61" d="M232.366 109.271L241.637 80.7388L255.903 85.3741L232.366 109.271Z" fill="white"/>
</g>
</g>
<g id="star_12">
<g id="cone_56">
<path id="triangle_56" d="M320 35L310.729 63.5317L324.995 68.167L320 35Z" fill="white"/>
<path id="Vector_62" d="M320 35L329.271 63.5317L315.005 68.167L320 35Z" fill="white"/>
</g>
<g id="cone_57">
<path id="triangle_57" d="M348.532 55.7295H318.532V70.7295L348.532 55.7295Z" fill="white"/>
<path id="Vector_63" d="M348.532 55.7295L324.261 73.3631L315.444 61.2278L348.532 55.7295Z" fill="white"/>
</g>
<g id="cone_58">
<path id="triangle_58" d="M291.468 55.7295L315.739 73.3631L324.556 61.2278L291.468 55.7295Z" fill="white"/>
<path id="Vector_64" d="M291.468 55.7295H321.468V70.7295L291.468 55.7295Z" fill="white"/>
</g>
<g id="cone_59">
<path id="triangle_59" d="M337.634 89.2705L328.363 60.7388L314.097 65.3741L337.634 89.2705Z" fill="white"/>
<path id="Vector_65" d="M337.634 89.2705L313.363 71.6369L322.18 59.5017L337.634 89.2705Z" fill="white"/>
</g>
<g id="cone_60">
<path id="triangle_60" d="M302.366 89.2705L326.637 71.6369L317.82 59.5017L302.366 89.2705Z" fill="white"/>
<path id="Vector_66" d="M302.366 89.2705L311.637 60.7388L325.903 65.3741L302.366 89.2705Z" fill="white"/>
</g>
</g>
</g>
</g>
</g>
</svg>
