<svg width="459" height="250" viewBox="0 0 459 250" fill="none" xmlns="http://www.w3.org/2000/svg">
<g id="logo_black 1" clip-path="url(#clip0_1_2)">
<g id="BG">
<g id="Group">
<g id="Group_2">
<path id="Vector" d="M98.95 124.38C98.95 113.97 102.07 105.53 108.32 99.04C114.56 92.55 122.77 89.31 132.93 89.31C139.5 89.31 144.83 90.48 148.91 92.83C152.99 95.18 155.03 98.23 155.03 101.98C155.03 104.39 154.25 106.39 152.7 107.98C151.15 109.57 149.19 110.37 146.82 110.37C145.8 110.37 143.74 109.87 140.64 108.87C137.54 107.87 134.97 107.37 132.93 107.37C128.85 107.37 125.55 108.9 123.04 111.96C120.53 115.02 119.28 119.04 119.28 124.02C119.28 129 120.57 133.27 123.14 136.23C125.71 139.19 129.22 140.67 133.67 140.67C135.83 140.67 138.41 140.17 141.41 139.17C144.41 138.17 146.36 137.67 147.26 137.67C149.42 137.67 151.24 138.5 152.71 140.15C154.18 141.8 154.91 143.83 154.91 146.24C154.91 149.87 152.69 152.97 148.24 155.54C143.79 158.11 138.28 159.4 131.71 159.4C122 159.4 114.11 156.17 108.05 149.7C101.99 143.23 98.96 134.79 98.96 124.39L98.95 124.38Z" fill="black" stroke="black" stroke-width="2" stroke-miterlimit="10"/>
<path id="Vector_2" d="M157.46 136.58C157.46 130.06 159.46 124.69 163.46 120.49C167.46 116.28 172.54 114.18 178.7 114.18C184.86 114.18 189.96 116.28 193.92 120.47C197.88 124.66 199.86 130.03 199.86 136.58C199.86 143.13 197.88 148.5 193.92 152.71C189.96 156.92 184.89 159.02 178.7 159.02C172.51 159.02 167.46 156.91 163.46 152.69C159.46 148.47 157.46 143.1 157.46 136.58ZM170.43 136.42C170.43 139.63 171.19 142.21 172.72 144.16C174.25 146.12 176.24 147.09 178.7 147.09C181.16 147.09 183.15 146.11 184.68 144.14C186.21 142.17 186.97 139.6 186.97 136.41C186.97 133.22 186.19 130.81 184.62 128.86C183.05 126.91 181.08 125.93 178.7 125.93C176.32 125.93 174.28 126.9 172.74 128.84C171.2 130.78 170.43 133.3 170.43 136.41V136.42Z" fill="black" stroke="black" stroke-width="2" stroke-miterlimit="10"/>
<path id="Vector_3" d="M233.08 152.5C231.71 154.47 230.08 155.94 228.19 156.91C226.3 157.88 224.14 158.37 221.71 158.37C216.64 158.37 212.35 156.29 208.84 152.12C205.33 147.95 203.58 142.78 203.58 136.59C203.58 130.4 205.47 125.1 209.25 120.83C213.03 116.56 217.64 114.42 223.07 114.42C225.19 114.42 227.07 114.78 228.72 115.51C230.36 116.24 231.82 117.36 233.09 118.89C233.76 117.65 234.6 116.67 235.59 115.96C236.58 115.25 237.6 114.89 238.64 114.89C240.79 114.89 242.37 115.63 243.4 117.12C244.42 118.61 244.93 120.89 244.93 123.97V149.17C244.93 153.8 244.7 157.42 244.25 160.02C243.8 162.62 243.04 164.77 241.98 166.48C240.14 169.56 237.61 171.9 234.39 173.49C231.17 175.08 227.34 175.88 222.92 175.88C217.51 175.88 213.1 175.01 209.68 173.28C206.26 171.55 204.56 169.36 204.56 166.72C204.56 165.14 205.07 163.83 206.09 162.8C207.11 161.76 208.4 161.25 209.95 161.25C210.7 161.25 212.51 161.81 215.37 162.92C218.23 164.03 220.9 164.59 223.39 164.59C226.5 164.59 228.9 163.67 230.61 161.83C232.32 159.99 233.17 157.39 233.17 154.03C233.17 153.87 233.16 153.63 233.13 153.29C233.1 152.95 233.09 152.7 233.09 152.51L233.08 152.5ZM216.54 136.58C216.54 139.71 217.3 142.25 218.83 144.19C220.36 146.13 222.32 147.1 224.73 147.1C227.14 147.1 229.12 146.12 230.67 144.17C232.22 142.22 233 139.69 233 136.58C233 133.47 232.22 131.09 230.67 129.18C229.12 127.27 227.14 126.33 224.73 126.33C222.32 126.33 220.36 127.28 218.83 129.18C217.3 131.08 216.54 133.55 216.54 136.58Z" fill="black" stroke="black" stroke-width="2" stroke-miterlimit="10"/>
<path id="Vector_4" d="M253.54 149.16V123.96C253.54 120.88 254.05 118.6 255.07 117.11C256.09 115.62 257.66 114.88 259.79 114.88C261.06 114.88 262.18 115.21 263.17 115.87C264.15 116.53 265.02 117.53 265.77 118.88C267.11 117.4 268.67 116.33 270.43 115.66C272.19 114.99 274.32 114.65 276.84 114.65C281.78 114.65 285.56 116.06 288.18 118.88C290.79 121.7 292.1 125.8 292.1 131.19V149.16C292.1 152.24 291.58 154.53 290.55 156.03C289.51 157.53 287.94 158.28 285.81 158.28C283.68 158.28 282.11 157.53 281.07 156.03C280.03 154.53 279.52 152.24 279.52 149.16V134.99C279.52 131.5 279 129.01 277.95 127.52C276.9 126.03 275.17 125.29 272.77 125.29C270.49 125.29 268.81 126.06 267.72 127.6C266.63 129.14 266.09 131.55 266.09 134.84V149.17C266.09 152.25 265.57 154.54 264.54 156.04C263.5 157.54 261.92 158.29 259.8 158.29C257.68 158.29 256.1 157.54 255.08 156.04C254.06 154.54 253.55 152.25 253.55 149.17L253.54 149.16Z" fill="black" stroke="black" stroke-width="2" stroke-miterlimit="10"/>
<path id="Vector_5" d="M299.77 104.32C299.77 102.33 300.48 100.62 301.91 99.2C303.34 97.78 305.04 97.06 307.03 97.06C309.02 97.06 310.68 97.77 312.08 99.2C313.48 100.62 314.18 102.33 314.18 104.32C314.18 106.31 313.49 108.05 312.1 109.44C310.72 110.84 309.03 111.54 307.03 111.54C305.03 111.54 303.26 110.84 301.87 109.44C300.47 108.04 299.77 106.33 299.77 104.32ZM313.2 149.16C313.2 152.27 312.7 154.56 311.69 156.05C310.68 157.54 309.13 158.28 307.03 158.28C304.93 158.28 303.33 157.53 302.29 156.03C301.25 154.53 300.74 152.24 300.74 149.16V123.96C300.74 120.88 301.25 118.6 302.27 117.11C303.29 115.62 304.88 114.88 307.03 114.88C309.18 114.88 310.68 115.62 311.69 117.11C312.7 118.6 313.2 120.88 313.2 123.96V149.16Z" fill="black" stroke="black" stroke-width="2" stroke-miterlimit="10"/>
<path id="Vector_6" d="M324.74 126.95H324.27C322.07 126.95 320.34 126.47 319.09 125.49C317.84 124.52 317.21 123.21 317.21 121.55C317.21 119.89 317.84 118.52 319.09 117.59C320.35 116.66 322.23 116.13 324.74 116V110.49C324.74 107.41 325.26 105.12 326.29 103.62C327.32 102.12 328.9 101.37 331.03 101.37C333.16 101.37 334.69 102.12 335.71 103.62C336.73 105.12 337.24 107.41 337.24 110.49V116H338.33C340.81 116 342.75 116.49 344.13 117.48C345.51 118.46 346.21 119.82 346.21 121.56C346.21 123.3 345.54 124.69 344.21 125.6C342.88 126.51 340.89 126.96 338.25 126.96H337.24V149.17C337.24 152.28 336.74 154.57 335.73 156.06C334.72 157.55 333.15 158.29 331.03 158.29C328.91 158.29 327.33 157.54 326.29 156.04C325.25 154.54 324.74 152.25 324.74 149.17V126.96V126.95Z" fill="black" stroke="black" stroke-width="2" stroke-miterlimit="10"/>
<path id="Vector_7" d="M348.11 104.32C348.11 102.33 348.82 100.62 350.25 99.2C351.68 97.78 353.38 97.06 355.37 97.06C357.36 97.06 359.02 97.77 360.42 99.2C361.82 100.62 362.52 102.33 362.52 104.32C362.52 106.31 361.83 108.05 360.44 109.44C359.06 110.84 357.37 111.54 355.37 111.54C353.37 111.54 351.6 110.84 350.21 109.44C348.81 108.04 348.11 106.33 348.11 104.32ZM361.54 149.16C361.54 152.27 361.04 154.56 360.03 156.05C359.02 157.54 357.47 158.28 355.37 158.28C353.27 158.28 351.67 157.53 350.63 156.03C349.59 154.53 349.08 152.24 349.08 149.16V123.96C349.08 120.88 349.59 118.6 350.61 117.11C351.63 115.62 353.22 114.88 355.37 114.88C357.52 114.88 359.02 115.62 360.03 117.11C361.04 118.6 361.54 120.88 361.54 123.96V149.16Z" fill="black" stroke="black" stroke-width="2" stroke-miterlimit="10"/>
<path id="Vector_8" d="M377.53 152.27L366.62 124.51C366.39 123.86 366.22 123.29 366.12 122.78C366.02 122.28 365.95 121.71 365.93 121.09C365.93 119.33 366.51 117.86 367.66 116.66C368.81 115.47 370.24 114.87 371.95 114.87C373.53 114.87 374.82 115.35 375.83 116.31C376.84 117.27 377.69 118.83 378.39 121.01L385.22 142.79L392.01 120.2C392.53 118.49 393.28 117.2 394.26 116.34C395.24 115.48 396.45 115.04 397.87 115.04C399.63 115.04 401.05 115.6 402.14 116.73C403.23 117.86 403.77 119.34 403.77 121.17C403.77 121.77 403.69 122.4 403.54 123.07C403.38 123.74 403.14 124.48 402.8 125.28L392.24 152.65C391.33 154.98 390.35 156.58 389.29 157.46C388.23 158.34 386.82 158.78 385.06 158.78C383.3 158.78 381.79 158.33 380.69 157.44C379.59 156.55 378.54 154.82 377.53 152.26V152.27Z" fill="black" stroke="black" stroke-width="2" stroke-miterlimit="10"/>
<path id="Vector_9" d="M417.75 140.08C418.04 142.44 419 144.27 420.66 145.59C422.32 146.91 424.5 147.57 427.22 147.57C429.57 147.57 432.19 146.89 435.08 145.53C437.97 144.17 439.74 143.49 440.42 143.49C441.89 143.49 443.1 143.94 444.03 144.85C444.96 145.76 445.43 146.92 445.43 148.34C445.43 151.03 443.55 153.46 439.8 155.62C436.05 157.78 431.63 158.86 426.56 158.86C420.37 158.86 415.21 156.75 411.07 152.53C406.93 148.31 404.86 143.02 404.86 136.65C404.86 130.28 406.87 124.93 410.9 120.66C414.92 116.39 419.94 114.25 425.94 114.25C431.94 114.25 436.59 116.26 440.5 120.27C444.41 124.28 446.36 129.19 446.36 134.98C446.36 136.87 445.93 138.19 445.08 138.94C444.23 139.69 442.58 140.07 440.15 140.07H417.75V140.08ZM417.59 131.89H434.13C433.97 129.77 433.12 127.99 431.57 126.57C430.02 125.15 428.17 124.43 426.02 124.43C423.87 124.43 422.07 125.1 420.55 126.45C419.03 127.8 418.04 129.61 417.6 131.89H417.59Z" fill="black" stroke="black" stroke-width="2" stroke-miterlimit="10"/>
</g>
<g id="Group_3">
<path id="Vector_10" d="M194.462 199.833L194.455 199.831C186.993 197.616 181.945 195.026 179.136 192.142C176.365 189.297 174.94 185.448 174.94 180.46C174.94 174.074 177.226 168.902 181.81 164.871C186.403 160.832 192.412 158.77 199.93 158.77C205.498 158.77 209.988 159.761 213.478 161.676C216.97 163.598 218.47 165.842 218.47 168.35C218.47 170.306 217.893 171.712 216.841 172.715C215.774 173.724 214.256 174.29 212.14 174.29C211.016 174.29 209.057 173.909 206.167 173.079C203.261 172.235 200.968 171.78 199.34 171.78C196.756 171.78 194.588 172.387 192.915 173.691L192.913 173.693C191.232 175.012 190.36 176.792 190.36 178.94C190.36 180.816 191.397 182.423 193.135 183.766C194.861 185.101 197.377 186.259 200.61 187.274L200.613 187.275C201.681 187.607 202.57 187.886 203.295 188.114C203.571 188.2 203.823 188.28 204.051 188.351C210.824 190.623 215.64 193.44 218.627 196.759C221.593 200.055 223.09 204.158 223.09 209.16V209.575L223.097 209.582C223.002 216.311 220.563 221.704 215.793 225.867C210.915 230.123 204.447 232.29 196.29 232.29C190.008 232.29 184.711 231.161 180.353 228.948C175.927 226.701 174.11 224.27 174.11 221.77C174.11 219.817 174.746 218.325 175.978 217.185C177.213 216.052 178.912 215.43 181.18 215.43C181.659 215.43 182.502 215.557 183.765 215.859C185.007 216.155 186.588 216.603 188.512 217.204C192.432 218.43 195.81 219.07 198.6 219.07C201.124 219.07 203.293 218.283 205.035 216.688C206.784 215.086 207.67 213.058 207.67 210.68C207.67 208.157 206.774 206.054 204.97 204.469C204.069 203.677 202.718 202.915 200.993 202.163C199.255 201.405 197.073 200.63 194.462 199.833Z" fill="black" stroke="black" stroke-width="2"/>
<path id="Vector_11" d="M254.64 186.53C260.049 186.53 264.589 188.626 268.318 192.869L268.319 192.87C272.038 197.114 273.92 202.44 273.92 208.9C273.92 215.352 271.992 220.745 268.163 225.187C264.333 229.63 259.79 231.81 254.47 231.81C252.568 231.81 250.83 231.507 249.245 230.905L249.239 230.903C247.637 230.307 246.106 229.399 244.657 228.168L243.01 226.768V228.93V240.22V240.23C243.01 243.453 242.467 245.649 241.537 247.003C240.655 248.275 239.312 248.96 237.33 248.96C235.348 248.96 234.016 248.275 233.145 247.005C232.225 245.663 231.69 243.458 231.69 240.23V195.51C231.69 192.315 232.224 190.138 233.145 188.795L233.146 188.794C234.004 187.539 235.332 186.86 237.33 186.86C238.495 186.86 239.489 187.158 240.363 187.741C241.238 188.33 242.062 189.265 242.809 190.591L243.489 191.799L244.421 190.772C245.692 189.37 247.191 188.316 248.904 187.603C250.618 186.89 252.525 186.53 254.64 186.53ZM259.612 200.426L259.61 200.424C257.771 198.132 255.391 196.94 252.54 196.94C249.697 196.94 247.283 198.115 245.449 200.405C243.624 202.684 242.76 205.602 242.76 209.07C242.76 212.636 243.609 215.614 245.402 217.906C247.21 220.216 249.619 221.4 252.54 221.4C255.462 221.4 257.873 220.215 259.68 217.883C261.47 215.574 262.32 212.61 262.32 209.07C262.32 205.512 261.44 202.718 259.612 200.426Z" fill="black" stroke="black" stroke-width="2"/>
<path id="Vector_12" d="M310.917 226.623L310.135 225.842L309.436 226.697C308.18 228.232 306.683 229.394 304.919 230.188L304.915 230.19C303.146 230.996 301.209 231.4 299.09 231.4C293.703 231.4 289.185 229.296 285.486 225.025L285.485 225.024C281.774 220.75 279.9 215.403 279.9 208.9C279.9 202.411 281.826 197.164 285.668 192.834L285.669 192.833C289.5 188.505 294.122 186.37 299.59 186.37C301.727 186.37 303.586 186.731 305.187 187.435C306.781 188.136 308.199 189.225 309.46 190.748L310.398 191.88L311.106 190.592C311.818 189.298 312.638 188.374 313.543 187.773C314.446 187.174 315.453 186.87 316.58 186.87C318.543 186.87 319.845 187.536 320.705 188.785C321.605 190.107 322.14 192.293 322.14 195.52V222.27C322.14 225.464 321.606 227.652 320.684 229.006C319.808 230.283 318.501 230.96 316.58 230.96C315.273 230.96 314.238 230.636 313.417 230.041C312.585 229.437 311.818 228.433 311.141 226.938L311.066 226.771L310.937 226.643L310.917 226.623ZM291.65 208.74C291.65 212.173 292.492 215.043 294.259 217.254C296.039 219.482 298.406 220.62 301.26 220.62C304.129 220.62 306.414 219.459 308.186 217.209C309.946 214.973 310.79 212.118 310.79 208.74C310.79 205.352 309.941 202.634 308.156 200.439C306.363 198.235 304.042 197.1 301.26 197.1C298.495 197.1 296.078 198.211 294.285 200.418C292.496 202.607 291.65 205.408 291.65 208.74Z" fill="black" stroke="black" stroke-width="2"/>
<path id="Vector_13" d="M334.785 229.005C333.905 227.721 333.377 225.656 333.333 222.681L333.34 222.674V222.26V195.51C333.34 192.315 333.874 190.138 334.795 188.795L334.796 188.794C335.654 187.539 336.982 186.86 338.98 186.86C340.145 186.86 341.139 187.158 342.013 187.741C342.888 188.33 343.712 189.265 344.459 190.591L345.132 191.786L346.064 190.779C347.364 189.375 348.728 188.335 350.143 187.637C351.555 186.94 352.954 186.61 354.36 186.61C355.936 186.61 357.274 187.156 358.418 188.282C359.569 189.416 360.12 190.704 360.12 192.21C360.12 193.198 359.68 194.168 358.611 195.14C357.523 196.129 355.824 197.077 353.44 197.95C351.676 198.581 350.318 199.115 349.39 199.557C347.637 200.392 346.307 201.385 345.608 202.631C344.92 203.857 344.65 205.852 344.65 208.42V222.27C344.65 225.461 344.107 227.648 343.177 229.003C342.295 230.275 340.952 230.96 338.97 230.96C336.988 230.96 335.656 230.275 334.785 229.005Z" fill="black" stroke="black" stroke-width="2"/>
<path id="Vector_14" d="M378.73 201.553V203.582L377.023 201.878L377.013 201.868L376.318 201.173L376.73 200.746V176.69C376.73 173.522 376.188 171.329 375.253 169.952C374.369 168.65 373.036 167.96 371.05 167.96C369.056 167.96 367.727 168.646 366.867 169.912L366.866 169.913C365.945 171.266 365.41 173.464 365.41 176.69V222.27C365.41 225.492 365.953 227.724 366.889 229.111C367.778 230.428 369.085 231.12 371.05 231.12C373.026 231.12 374.366 230.43 375.249 229.113C376.187 227.715 376.73 225.49 376.73 222.27V210.28V207.276L378.53 209.681L391.8 227.4L378.73 201.553ZM378.73 201.553L389.77 190.104L389.771 190.103C390.936 188.89 392.002 188.048 392.976 187.535C393.948 187.022 394.899 186.78 395.85 186.78C397.178 186.78 398.25 187.201 399.145 188.039C400.041 188.886 400.46 189.839 400.46 190.94C400.46 191.783 400.218 192.711 399.67 193.725C399.117 194.749 398.367 195.715 397.396 196.64L388.462 204.875L387.757 205.525L388.377 206.257L400.787 220.887L400.788 220.888C401.646 221.896 402.24 222.854 402.601 223.76C402.964 224.673 403.15 225.627 403.15 226.63C403.15 227.871 402.683 228.903 401.696 229.782C400.697 230.664 399.47 231.12 397.93 231.12C396.825 231.12 395.779 230.831 394.787 230.248C393.794 229.664 392.797 228.73 391.8 227.401L378.73 201.553Z" fill="black" stroke="black" stroke-width="2"/>
</g>
</g>
</g>
<g id="graphics">
<g id="Group_4">
<path id="Vector_15" d="M36.35 89.35C37.5 83.52 40.18 79.86 40.35 79.63C41.43 78.21 43.5 77.87 45 78.89C46.49 79.91 46.78 81.84 45.77 83.31C44.11 85.72 41.93 92.25 42.95 97.99C43.96 103.73 45.68 108.37 55.08 110.08C61.04 111.17 61.63 115.81 62.06 119.21C62.54 122.94 63.12 127.58 68.81 132.66C71.05 134.66 73.91 136.16 76.95 137.74C78.46 138.53 80.03 139.35 81.58 140.28C83.92 135.24 85.85 126.6 85.69 121.45C85.49 115.06 83.31 108.97 79.4 103.84L78.55 102.73L78.82 101.38C79.3 98.99 79.5 96.56 79.45 94.16C78.27 94.55 76.74 94.82 75.23 94.8C68.84 94.74 63.93 92.24 60.61 88.21C54.87 81.26 56.19 73.53 56.46 69.48C56.73 65.43 56.98 62.21 57.46 57.64C58.21 50.56 59.13 41.74 58.43 38.61C56.27 28.97 51.38 29.13 49.53 29.19C47.69 29.25 46.15 27.88 46.1 26.13C46.05 24.38 47.49 22.91 49.33 22.85C53.92 22.7 62.06 24.38 64.94 37.27C65.86 41.37 64.96 49.96 64.08 58.26C63.6 62.82 63.2 66.12 63.11 69.8C63.02 73.48 62.44 80.25 65.86 84.31C68.01 86.86 71.18 88.24 75.63 88.47C77.24 88.57 80.78 86.96 82.67 83.68C83.79 81.14 84.34 78.38 84.26 75.59C84.13 71.48 82.65 67.58 80 64.32L78.37 62.32L80.06 60.36C83.19 56.72 84.84 52.16 84.69 47.5C84.57 43.59 83.22 39.86 80.81 36.71L79.31 34.76L80.89 32.86C83.88 29.26 85.45 24.77 85.3 20.2C84.95 8.95 77.3 1.33 66.69 1.67C59.37 1.91 53.88 4.99 50.82 12.17C43.41 10.18 34.74 16.71 32.8 23.21C30.8 29.94 32.02 38 40.41 48.19C41.65 49.7 42.98 51.06 44.36 52.22C45.73 53.38 45.86 55.39 44.63 56.7C43.99 57.38 43.13 57.74 42.24 57.77C41.42 57.8 40.59 57.53 39.92 56.97C38.25 55.56 36.65 53.92 35.16 52.12C29.16 44.83 27.02 36.62 26.26 31.07C13.59 39.86 11.96 56.04 17.73 64.94C10.33 76.25 21.84 90.08 36.37 89.39L36.35 89.35Z" fill="#04B3FF" stroke="black" stroke-width="3" stroke-miterlimit="10"/>
<path id="Vector_16" d="M73.72 143.31C70.34 141.87 67.08 139.85 64.23 137.3C56.79 130.65 55.98 124.24 55.44 120C55 116.54 54.86 116.52 53.79 116.32C48.38 115.33 44.65 113.56 42.06 111.3C38.84 112.73 35.69 113.37 32.77 113.47C24.19 113.75 17.61 109.65 17.24 109.41C15.71 108.44 15.31 106.47 16.33 105.01C17.36 103.55 19.43 103.16 20.94 104.12C21.3 104.35 29.33 109.25 38.14 106.03C37.28 104.18 35.6 100.31 35.71 95.77C21.72 96.16 8.76999 87.77 8.20999 73.71C-9.88001 100.68 11.67 125.95 36.25 133.1C42.86 135.02 47.63 141.75 47.7 148.76C47.7 149.98 47.55 151.82 46.81 153.88C49.42 154.38 52.5 155.28 55.56 156.72C54.81 151.91 55.4 147.89 55.44 147.62C55.71 145.89 57.42 144.69 59.22 144.93C61.04 145.18 62.29 146.79 62.03 148.52C62.02 148.6 60.51 158.7 64.9 163.43C67.23 165.94 69.56 170.1 70.23 174.72C70.48 176.45 69.21 178.06 67.39 178.31C67.27 178.32 67.15 178.34 67.03 178.34C65.35 178.39 63.87 177.24 63.64 175.61C61.67 162.07 47.98 160.19 43.14 159.7C40.95 161.96 37.75 164.11 33.03 165.71C32.7 165.83 32.36 165.88 32.02 165.89C30.61 165.94 29.27 165.12 28.78 163.78C28.17 162.13 29.08 160.31 30.82 159.72C37.45 157.47 41.07 153.6 41.03 148.83C40.99 144.59 37.97 140.33 34.14 139.13C20.45 134.83 10.4 127.8 4.17999 118.23C-3.86001 139.55 13.56 148.6 24.7 147.27C26.5 147.08 28.19 148.29 28.41 150.03C28.63 151.77 27.33 153.36 25.5 153.57C24.59 153.68 23.71 153.74 22.85 153.77C19.01 153.89 15.61 153.27 12.68 152.28C10.06 164.06 21.93 183.7 43.62 175.62C46.34 191.06 68.77 198.2 81.7 183.53C94.42 169.1 85.59 148.39 73.72 143.32V143.31Z" fill="#ABFCFF" stroke="black" stroke-width="3" stroke-miterlimit="10"/>
<path id="Vector_17" d="M163.13 89.58C165.33 76.05 162.97 62.79 150.16 59.91C152.65 48.78 146.25 38.41 140.29 34.86C137.85 42.62 133.92 46.87 129.71 50.24C131.24 52.53 134.9 58.64 134.98 65.18C135 67.03 133.58 68.56 131.8 68.62C131.78 68.62 131.76 68.62 131.74 68.62C129.93 68.65 128.44 67.16 128.42 65.29C128.37 60.69 125.52 55.94 124.37 54.2C119.06 58.05 114.14 62.19 111.01 72.64C110.58 74.06 109.34 74.98 107.98 75.03C107.63 75.04 107.27 75 106.91 74.88C105.18 74.34 104.21 72.44 104.75 70.66C108.81 57.13 115.79 52.13 121.95 47.71C127.18 43.96 131.72 40.68 134.23 32.22L134.74 29.4C135.05 27.71 135.18 26.01 135.13 24.35C134.76 11.33 124.18 1.08 111.57 1.52C98.96 1.96 89 12.92 89.37 25.94C89.47 29.24 90.22 32.43 91.61 35.42L92.38 37.08L91.44 38.66C89.37 42.14 88.34 46.12 88.46 50.18C88.49 51.05 88.57 51.92 88.71 52.77C91.34 48.93 94.26 45.72 96.18 44.01C96.95 43.33 97.7 42.68 98.42 42.05C105.56 35.83 109.14 32.71 108.52 22.25C108.41 20.39 109.78 18.77 111.59 18.65C113.44 18.52 114.95 19.94 115.06 21.81C115.89 35.67 110.33 40.52 102.64 47.22C101.93 47.84 101.2 48.48 100.44 49.14C97.56 51.69 93.91 56.3 91.57 60.73L91.61 60.81L90.93 62.34C89.61 65.3 88.99 68.43 89.08 71.64C89.17 74.67 89.89 77.6 91.24 80.35L91.9 81.7L91.36 83.11C89.94 86.82 89.28 90.73 89.39 94.72C89.48 97.92 90.14 101.06 91.21 104.04C91.21 104.04 123.18 57.82 163.13 89.57V89.58Z" fill="#D9E021" stroke="black" stroke-width="3" stroke-miterlimit="10"/>
</g>
<g id="Group_5">
<g id="Group_6">
<g id="Group_7">
<path id="Vector_18" d="M428.48 163.08C428.4 167.71 427.72 172.45 425.43 176.48C423.14 180.5 419.01 183.7 414.39 183.89C418.96 184.32 423.32 186.7 426.14 190.33C428.96 193.96 430.2 198.77 429.49 203.31C430.4 198.99 431.7 194.67 434.22 191.04C436.74 187.42 440.64 184.56 445.04 184.16C440.19 183.53 435.63 180.86 432.7 176.95C429.77 173.03 428.5 167.91 429.26 163.08" fill="#FCEE21"/>
<path id="Vector_19" d="M427.48 163.08C427.38 167.69 426.74 172.46 424.28 176.46C422.14 179.93 418.54 182.65 414.39 182.89C413.09 182.97 413.12 184.76 414.39 184.89C423.3 185.83 429.81 194.16 428.52 203.04C428.34 204.28 430.17 204.86 430.45 203.57C432.1 195.83 435.92 186.13 445.03 185.16C446.04 185.05 446.51 183.37 445.3 183.2C435.73 181.85 428.81 173.01 430.22 163.34C430.4 162.08 428.48 161.54 428.29 162.81C427.52 168.09 428.79 173.51 432.07 177.76C435.15 181.76 439.79 184.42 444.77 185.13L445.04 183.17C434.93 184.25 430.4 194.27 428.53 203.05L430.46 203.58C431.19 198.56 429.92 193.46 426.74 189.48C423.56 185.5 419.19 183.4 414.4 182.9V184.9C419.04 184.63 423.03 181.89 425.61 178.11C428.59 173.74 429.39 168.27 429.5 163.09C429.53 161.8 427.53 161.8 427.5 163.09L427.48 163.08Z" fill="black"/>
</g>
<g id="Group_8">
<path id="Vector_20" d="M413.75 199.94C414.4 206.71 409.91 213.64 403.46 215.81C406.36 214.81 409.47 217.05 410.94 219.74C412.41 222.43 412.84 225.57 414.11 228.36C413.17 223.29 416.19 217.76 420.97 215.81C418.01 215.7 415.48 213.36 414.34 210.63C413.2 207.89 413.22 204.82 413.47 201.87" fill="#FCEE21"/>
<path id="Vector_21" d="M412.75 199.94C413.28 206.34 409.3 212.7 403.19 214.85C401.99 215.27 402.47 217.15 403.72 216.78C406.47 215.95 408.97 218.15 410.18 220.45C411.58 223.1 412.05 226.14 413.25 228.88C413.74 229.99 415.25 229.14 415.08 228.11C414.29 223.35 417.1 218.57 421.48 216.69C422.47 216.26 421.85 214.89 420.98 214.83C414.7 214.4 414.1 206.62 414.49 201.89C414.6 200.61 412.59 200.61 412.49 201.89C412.2 205.38 412.23 209.15 414.05 212.27C415.53 214.81 418.01 216.63 420.98 216.83L420.48 214.97C415.23 217.22 412.23 223.07 413.16 228.65L414.99 227.88C413.55 224.6 413.18 220.8 410.92 217.91C409.1 215.59 406.19 213.97 403.21 214.87L403.74 216.8C410.64 214.38 415.37 207.29 414.76 199.96C414.65 198.69 412.65 198.68 412.76 199.96L412.75 199.94Z" fill="black"/>
</g>
</g>
<path id="Vector_22" d="M451.09 196.9C452.38 196.9 452.38 194.9 451.09 194.9C449.8 194.9 449.8 196.9 451.09 196.9Z" fill="black"/>
<g id="Group_9">
<path id="Vector_23" d="M451.01 197.07C450.94 199.01 449.82 200.79 448.37 202.08C446.92 203.37 445.15 204.24 443.41 205.09C445.45 204.83 447.5 205.87 448.86 207.41C450.22 208.95 450.99 210.92 451.53 212.91C451.78 211.14 452.32 209.38 453.42 207.97C454.52 206.57 456.24 205.58 458.02 205.67C454.35 204.48 451.57 200.93 451.28 197.08" fill="#FCEE21"/>
<path id="Vector_24" d="M450.01 197.07C449.79 200.85 445.87 202.77 442.91 204.22C442.05 204.64 442.43 206.18 443.41 206.08C447.54 205.66 449.64 209.8 450.57 213.16C450.81 214.04 452.35 214.18 452.5 213.16C452.94 210.21 454.5 206.58 458.03 206.65C459.2 206.68 459.33 205.04 458.3 204.69C455.05 203.59 452.6 200.5 452.3 197.07C452.19 195.8 450.19 195.79 450.3 197.07C450.68 201.43 453.62 205.21 457.77 206.62L458.04 204.66C453.62 204.56 451.16 208.76 450.58 212.63H452.51C451.89 210.38 450.99 208.12 449.33 206.42C447.8 204.86 445.63 203.85 443.42 204.08L443.92 205.94C447.64 204.12 451.75 201.67 452.01 197.06C452.08 195.77 450.08 195.78 450.01 197.06V197.07Z" fill="black"/>
</g>
<g id="Group_10">
<path id="Vector_25" d="M451.07 196.08C451.14 195.99 451 195.84 450.9 195.91Z" fill="#FCEE21"/>
<path id="Vector_26" d="M451.93 196.58C451.93 196.58 451.93 196.58 451.93 196.57C451.97 196.49 452.01 196.4 452.04 196.32C452.05 196.28 452.06 196.18 452.06 196.17C452.06 196.17 452.08 196.07 452.08 196.02C452.08 195.93 452.06 195.83 452.04 195.74C452.04 195.74 452.04 195.73 452.04 195.72C452.01 195.63 451.97 195.55 451.93 195.47C451.93 195.47 451.93 195.46 451.93 195.45C451.88 195.37 451.82 195.29 451.75 195.22C451.75 195.22 451.75 195.22 451.74 195.21C451.71 195.18 451.66 195.15 451.64 195.13C451.61 195.11 451.57 195.08 451.54 195.05C451.54 195.05 451.54 195.05 451.53 195.05C451.49 195.03 451.42 195 451.4 194.99C451.38 194.99 451.31 194.95 451.27 194.93C451.19 194.91 450.92 194.88 450.99 194.89C450.99 194.89 450.98 194.89 450.97 194.89C450.92 194.89 450.85 194.91 450.83 194.91C450.82 194.91 450.73 194.91 450.69 194.93C450.61 194.96 450.52 195 450.44 195.03C450.44 195.03 450.43 195.03 450.42 195.04C450.3 195.1 450.21 195.19 450.14 195.3C450.05 195.4 449.99 195.51 449.96 195.64C449.92 195.77 449.91 195.91 449.94 196.04C449.94 196.17 449.99 196.3 450.06 196.41L450.22 196.61C450.34 196.73 450.49 196.82 450.66 196.87L450.93 196.91C451.11 196.91 451.28 196.86 451.43 196.77C451.43 196.77 451.44 196.77 451.45 196.76L451.21 196.86H451.23L450.96 196.9C450.96 196.9 450.98 196.9 450.99 196.9L450.72 196.86C450.72 196.86 450.74 196.86 450.75 196.86L450.51 196.76C450.51 196.76 450.53 196.77 450.54 196.78L450.34 196.62C450.34 196.62 450.36 196.64 450.37 196.65L450.21 196.45C450.21 196.45 450.22 196.47 450.23 196.48L450.13 196.24C450.13 196.24 450.13 196.26 450.13 196.27L450.09 196C450.09 196 450.09 196.02 450.09 196.03L450.13 195.76V195.78L450.23 195.54C450.23 195.54 450.23 195.55 450.22 195.56C450.15 195.67 450.11 195.8 450.1 195.93C450.07 196.06 450.08 196.2 450.12 196.33C450.15 196.46 450.21 196.57 450.3 196.67C450.37 196.78 450.46 196.86 450.58 196.93L450.82 197.03C451 197.08 451.17 197.08 451.35 197.03L451.59 196.93C451.74 196.84 451.86 196.72 451.95 196.57L451.93 196.58Z" fill="black"/>
</g>
</g>
</g>
</g>
<defs>
<clipPath id="clip0_1_2">
<rect width="459" height="249.96" fill="white"/>
</clipPath>
</defs>
</svg>
